<svg width="14" height="14" viewBox="0 0 14 14" fill="none" xmlns="http://www.w3.org/2000/svg">
<path d="M6.475 6.475V4.375H7.525V6.475H9.625V7.525H7.525V9.625H6.475V7.525H4.375V6.475H6.475ZM7 12.25C4.10043 12.25 1.75 9.89957 1.75 7C1.75 4.10043 4.10043 1.75 7 1.75C9.89957 1.75 12.25 4.10043 12.25 7C12.25 9.89957 9.89957 12.25 7 12.25ZM7 11.2C8.11391 11.2 9.1822 10.7575 9.96985 9.96985C10.7575 9.1822 11.2 8.11391 11.2 7C11.2 5.88609 10.7575 4.8178 9.96985 4.03015C9.1822 3.2425 8.11391 2.8 7 2.8C5.88609 2.8 4.8178 3.2425 4.03015 4.03015C3.2425 4.8178 2.8 5.88609 2.8 7C2.8 8.11391 3.2425 9.1822 4.03015 9.96985C4.8178 10.7575 5.88609 11.2 7 11.2Z" fill="#A4A4A4"/>
</svg>
