<svg width="9" height="9" viewBox="0 0 9 9" fill="none" xmlns="http://www.w3.org/2000/svg">
<path d="M4.375 8.75C1.95875 8.75 0 6.79122 0 4.375C0 1.95875 1.95875 0 4.375 0C6.79122 0 8.75 1.95875 8.75 4.375C8.75 6.79122 6.79122 8.75 4.375 8.75ZM4.375 3.28125C4.73742 3.28125 5.03125 2.98744 5.03125 2.625C5.03125 2.26256 4.73742 1.96875 4.375 1.96875C4.01258 1.96875 3.71875 2.26256 3.71875 2.625C3.71875 2.98744 4.01258 3.28125 4.375 3.28125ZM5.25 5.6875H4.8125V3.71875H3.5V4.59375H3.9375V5.6875H3.5V6.5625H5.25V5.6875Z" fill="currentColor"/>
</svg>
