<svg width="14" height="14" viewBox="0 0 14 14" fill="none" xmlns="http://www.w3.org/2000/svg">
<path d="M7 11.375C4.58375 11.375 2.625 9.41622 2.625 7C2.625 4.58375 4.58375 2.625 7 2.625C9.41622 2.625 11.375 4.58375 11.375 7C11.375 9.41622 9.41622 11.375 7 11.375ZM7 5.90625C7.36242 5.90625 7.65625 5.61244 7.65625 5.25C7.65625 4.88756 7.36242 4.59375 7 4.59375C6.63758 4.59375 6.34375 4.88756 6.34375 5.25C6.34375 5.61244 6.63758 5.90625 7 5.90625ZM7.875 8.3125H7.4375V6.34375H6.125V7.21875H6.5625V8.3125H6.125V9.1875H7.875V8.3125Z" fill="#A4A4A4"/>
</svg>
