<svg width="11" height="11" viewBox="0 0 11 11" fill="none" xmlns="http://www.w3.org/2000/svg">
<g clip-path="url(#clip0_140_171)">
<path d="M9.76628 4.82376C9.76628 3.58854 9.2849 2.42712 8.41082 1.55318C7.67389 0.816555 6.7447 0.361775 5.71914 0.234436C5.70417 0.223093 5.68878 0.212323 5.673 0.20215C5.22033 -0.0891644 4.82353 0.106329 4.61078 0.211631L4.56439 0.234178C4.24731 0.273637 3.93485 0.346143 3.63239 0.450424C3.61752 0.434281 3.60214 0.41814 3.5865 0.402513C3.32684 0.142708 2.98183 0 2.61451 0C1.85655 0 1.23983 0.616452 1.23983 1.37408C1.23983 1.62184 1.30366 1.85756 1.42618 2.06612C0.835093 2.86038 0.511353 3.83221 0.511353 4.82376C0.511353 6.05923 0.992735 7.2209 1.86681 8.0946C2.24745 8.47508 2.68295 8.78202 3.1628 9.00852C3.16305 9.09307 3.17125 9.17147 3.18715 9.24167C3.16792 9.27216 3.15126 9.30701 3.13921 9.34723C3.0254 9.55579 3.13204 9.78613 3.46936 10.0426C3.67468 10.1997 3.83437 10.2266 3.96638 10.2266C4.00201 10.2266 4.03584 10.2245 4.06788 10.2227L4.11582 10.2202C4.34753 10.2107 4.53671 10.0528 4.67974 9.88631L4.90325 9.85274C4.9945 9.83917 5.10755 9.81687 5.25519 9.75461C5.47973 9.66007 5.57124 9.53196 5.6061 9.42589C6.1449 9.37285 6.66063 9.22809 7.14508 8.99442C7.15867 9.06898 7.17277 9.17301 7.1843 9.30726C7.19994 9.49046 7.23172 9.616 7.31324 9.87811C7.38244 10.101 7.49856 10.2035 7.66082 10.1838C7.73515 10.1746 7.9097 10.12 7.92637 9.7974C7.93072 9.71003 7.94226 9.47765 7.93226 9.30086C7.91816 9.06027 7.92893 8.89553 7.94098 8.85555C7.96507 8.77895 7.98635 8.64444 7.91022 8.52862C8.08734 8.39591 8.25498 8.25038 8.41082 8.0946C9.2849 7.22065 9.76628 6.05923 9.76628 4.82376" fill="#FEFEFE"/>
<path d="M9.45891 4.8096C9.45891 3.6518 9.00789 2.56331 8.18916 1.74458C7.4821 1.03733 6.57376 0.604935 5.59332 0.50022C5.57062 0.477608 5.54514 0.456757 5.51622 0.438224C5.16918 0.214985 4.87949 0.38077 4.67868 0.47835C4.66422 0.485393 4.64736 0.493732 4.62836 0.503463C4.25036 0.546647 3.8871 0.638852 3.54478 0.773221C3.50388 0.711965 3.45704 0.654885 3.40495 0.602805C3.19551 0.393371 2.91704 0.278 2.62078 0.278C2.00926 0.278 1.51181 0.775539 1.51181 1.38706C1.51181 1.64329 1.59827 1.88627 1.7572 2.08273C1.15235 2.82806 0.789368 3.77708 0.789368 4.8096C0.789368 5.9675 1.24029 7.05608 2.05893 7.87481C2.4588 8.27458 2.92335 8.58651 3.42848 8.80122C3.40031 9.0303 3.43747 9.1857 3.47936 9.24946C3.4156 9.30312 3.38882 9.33657 3.37872 9.3968C3.27827 9.53423 3.52282 9.70845 3.62327 9.78546C3.82974 9.94374 3.93826 9.91622 4.09904 9.90954C4.29753 9.9012 4.48426 9.66814 4.59166 9.51746C4.80601 9.48734 4.84623 9.5208 4.8529 9.54758C4.9199 9.53757 5.01368 9.5208 5.14101 9.46714C5.4305 9.34528 5.34868 9.1959 5.31865 9.16903C5.31077 9.16217 5.30447 9.15244 5.29836 9.14076C5.98559 9.1137 6.64428 8.92734 7.23208 8.5993C7.25274 8.62246 7.27424 8.64897 7.29528 8.67992C7.35894 8.77379 7.3924 9.07858 7.40583 9.23602C7.41927 9.39347 7.44605 9.50087 7.52306 9.74858C7.60007 9.99656 7.63028 9.81567 7.63371 9.74858C7.63704 9.68167 7.65039 9.44045 7.64038 9.26614C7.63028 9.09192 7.62694 8.8407 7.66049 8.73348C7.69403 8.62636 7.63371 8.59948 7.61693 8.57946C7.60007 8.55926 7.61693 8.55259 7.57329 8.41526C7.57088 8.40766 7.56893 8.3996 7.56735 8.39144C7.78781 8.2402 7.99613 8.06793 8.18916 7.87481C9.00789 7.05608 9.45891 5.9675 9.45891 4.8096" fill="white"/>
<path d="M9.45891 4.8096C9.45891 3.6518 9.00789 2.56331 8.18916 1.74458C7.4821 1.03733 6.57376 0.604935 5.59332 0.50022C5.57062 0.477608 5.54514 0.456757 5.51622 0.438224C5.16918 0.214985 4.87949 0.38077 4.67868 0.47835C4.66422 0.485393 4.64736 0.493732 4.62836 0.503463C4.25036 0.546647 3.8871 0.638852 3.54478 0.773221C3.50388 0.711965 3.45704 0.654885 3.40495 0.602805C3.19551 0.393371 2.91704 0.278 2.62078 0.278C2.00926 0.278 1.51181 0.775539 1.51181 1.38706C1.51181 1.64329 1.59827 1.88627 1.7572 2.08273C1.15235 2.82806 0.789368 3.77708 0.789368 4.8096C0.789368 5.9675 1.24029 7.05608 2.05893 7.87481C2.4588 8.27458 2.92335 8.58651 3.42848 8.80122C3.40031 9.0303 3.43747 9.1857 3.47936 9.24946C3.4156 9.30312 3.38882 9.33657 3.37872 9.3968C3.27827 9.53423 3.52282 9.70845 3.62327 9.78546C3.82974 9.94374 3.93826 9.91622 4.09904 9.90954C4.29753 9.9012 4.48426 9.66814 4.59166 9.51746C4.80601 9.48734 4.84623 9.5208 4.8529 9.54758C4.9199 9.53757 5.01368 9.5208 5.14101 9.46714C5.4305 9.34528 5.34868 9.1959 5.31865 9.16903C5.31077 9.16217 5.30447 9.15244 5.29836 9.14076C5.98559 9.1137 6.64428 8.92734 7.23208 8.5993C7.25274 8.62246 7.27424 8.64897 7.29528 8.67992C7.35894 8.77379 7.3924 9.07858 7.40583 9.23602C7.41927 9.39347 7.44605 9.50087 7.52306 9.74858C7.60007 9.99656 7.63028 9.81567 7.63371 9.74858C7.63704 9.68167 7.65039 9.44045 7.64038 9.26614C7.63028 9.09192 7.62694 8.8407 7.66049 8.73348C7.69403 8.62636 7.63371 8.59948 7.61693 8.57946C7.60007 8.55926 7.61693 8.55259 7.57329 8.41526C7.57088 8.40766 7.56893 8.3996 7.56735 8.39144C7.78781 8.2402 7.99613 8.06793 8.18916 7.87481C9.00789 7.05608 9.45891 5.9675 9.45891 4.8096" fill="#061922"/>
<path d="M4.09899 8.85413C4.25996 8.84737 4.48431 8.79724 4.58652 8.75359C4.59996 8.75702 4.62174 8.77036 4.65528 8.78371C4.66853 8.67658 4.59996 8.45381 4.56141 8.3515C4.53583 8.28376 4.51109 8.2377 4.48097 8.16737C4.39053 8.1505 4.27831 8.10204 4.19787 8.06849C4.19787 8.13215 4.20964 8.29803 4.22308 8.40849C4.18962 8.41192 4.14264 8.41526 4.08555 8.41526C4.09232 8.53582 4.10585 8.75359 4.09899 8.85413V8.85413ZM7.13113 8.49903C7.10092 8.46882 7.16792 8.37494 7.19813 8.20082C7.22816 8.0266 7.2315 7.73507 7.10426 7.57086C7.04227 7.49097 7.01224 7.44066 7.00177 7.4047C6.60496 7.69336 6.15033 7.885 5.66697 7.9672C5.66122 7.97739 5.65548 7.98629 5.65029 7.99305C5.57986 8.08359 5.44252 8.21425 5.34188 8.26782C5.24143 8.32138 5.1242 8.36169 5.06054 8.3818C5.0472 8.48893 5.02977 8.7282 5.0573 8.81049C5.0674 8.8407 5.1912 8.91446 5.23476 8.9949C5.2393 9.00315 5.24338 9.0113 5.24736 9.01946C5.93098 8.99972 6.57438 8.81642 7.13948 8.507C7.1366 8.50431 7.13355 8.50134 7.13114 8.49903L7.13113 8.49903ZM8.10226 1.83144C7.44181 1.17099 6.60047 0.757127 5.69009 0.635635C5.76302 0.779922 5.77432 0.945707 5.7809 1.05135C5.91157 0.994358 6.01202 0.964149 6.06567 0.877131C6.11933 0.78993 6.193 0.806704 6.23989 0.870368C6.28688 0.933937 6.28688 1.01447 6.16288 1.09148C6.03889 1.16858 5.94854 1.20546 5.92167 1.21889C5.89479 1.23215 5.91833 1.25568 5.94854 1.30591C5.97857 1.35614 6.0553 1.48031 6.0691 1.74145C6.0692 1.74396 6.06938 1.74655 6.06938 1.74905C6.56192 1.90066 7.01331 2.17107 7.38797 2.54573C7.99291 3.15058 8.32605 3.95494 8.32605 4.81037C8.32605 5.30161 8.21587 5.77598 8.00783 6.2055C8.03554 6.21977 8.07316 6.31707 8.08595 6.44523C8.09262 6.51223 8.08919 6.586 8.06927 6.6328C8.04916 6.67978 7.89097 6.91701 7.81119 6.988C7.78107 7.01487 7.71055 7.01153 7.68052 6.96798C7.65041 6.92433 7.64707 6.94778 7.62353 6.97113C7.60009 6.99467 7.51965 7.1119 7.49973 7.14211C7.47952 7.17231 7.41252 7.20234 7.45599 7.32299C7.49973 7.44374 7.54977 7.53409 7.53318 7.60109C7.51631 7.66819 7.50964 7.68829 7.60009 7.76539C7.69072 7.84231 7.68729 7.93609 7.64707 7.99642C7.62186 8.03423 7.58229 8.13496 7.56691 8.23884C8.63696 7.47432 9.33596 6.22199 9.33596 4.80963C9.33596 3.68463 8.89773 2.62691 8.10226 1.83144V1.83144ZM3.26478 7.9193C3.25302 7.80578 3.23578 7.6007 3.3151 7.45438C3.15349 7.34318 3.00059 7.21669 2.8588 7.0749C2.25395 6.46987 1.92081 5.66578 1.92081 4.81035C1.92081 3.89432 2.30742 3.06697 2.9259 2.48279C2.93173 2.47037 2.93915 2.45851 2.94823 2.44702C2.84351 2.47927 2.73352 2.49604 2.62074 2.49604C2.32568 2.49604 2.04823 2.38141 1.83907 2.17355C1.23867 2.9187 0.912292 3.83909 0.912292 4.80961C0.912292 5.93461 1.35034 6.99233 2.1459 7.7878C2.52724 8.16914 2.96899 8.46818 3.44938 8.67631C3.46791 8.58661 3.49571 8.48847 3.53621 8.38181C3.57309 8.28451 3.5161 8.06016 3.42223 7.94284C3.372 7.92931 3.30843 7.92273 3.26479 7.9193L3.26478 7.9193ZM4.38161 0.662842C4.11697 0.709582 3.85746 0.781798 3.60671 0.878483C3.68697 1.03389 3.72978 1.20709 3.72978 1.38705C3.72978 1.62558 3.6549 1.85262 3.51636 2.04129C3.74813 1.90628 3.99824 1.79934 4.26198 1.72557C4.27912 1.7088 4.29626 1.69267 4.3135 1.67785C4.21629 1.51688 4.08563 1.25898 4.19961 0.910455C4.23167 0.812321 4.30229 0.729751 4.38161 0.662842Z" fill="#008348"/>
<path d="M6.06571 1.93238C6.15949 1.97927 6.26439 2.0813 6.22306 2.27071C6.20638 2.34782 6.14197 2.42195 6.13614 2.45179C6.12604 2.50192 6.02048 2.58737 5.98694 2.65436C5.95367 2.72081 5.94848 2.77743 5.95821 2.80606C5.95831 2.80644 5.95849 2.80662 5.95858 2.8068C6.01205 2.85712 6.13271 2.92412 6.19962 2.94748C6.25207 2.96582 6.24836 2.98 6.2264 3.01457C6.26337 3.01791 6.28227 3.04061 6.31703 3.08157C6.35372 3.12522 6.45093 3.09834 6.51126 3.06813C6.57159 3.03801 6.6486 3.02791 6.70902 3.10168C6.76925 3.17535 6.85979 3.31278 6.90325 3.44011C6.9469 3.56734 6.99379 3.67122 7.00722 3.69124C7.02057 3.71144 6.96024 4.07998 6.94338 4.22742C6.92669 4.37476 6.91326 4.43843 6.90992 4.46187C6.90659 4.48532 7.0038 4.37819 7.00722 4.50543C7.00973 4.60699 7.05717 4.93263 7.11203 5.17385C7.12593 5.23519 7.14029 5.29098 7.15457 5.3363C7.19488 5.34306 7.22815 5.4235 7.25168 5.5474C7.27513 5.67139 7.32536 5.74849 7.32878 5.80872C7.33212 5.86896 7.34889 5.87906 7.36891 5.88907C7.38902 5.89926 7.38235 5.92938 7.32211 5.99962C7.33546 6.00972 7.35557 6.02992 7.36891 6.04308C7.38578 6.0264 7.43257 5.97302 7.43257 5.97302C7.43257 5.97302 7.61689 6.0466 7.65711 6.05995C7.69733 6.07338 7.74515 5.97413 7.86478 6.0264C7.89759 6.04076 7.93382 6.08608 7.95958 6.13084C8.14714 5.7294 8.25232 5.28199 8.25232 4.81031C8.25232 3.97462 7.92678 3.18888 7.33583 2.59793C6.97516 2.23735 6.54212 1.97584 6.06941 1.82646C6.06802 1.87252 6.06571 1.91616 6.06571 1.93238V1.93238ZM7.03385 7.20239C6.98705 7.17894 6.95647 7.21295 6.9334 7.02826C6.92672 6.9747 6.88326 6.90418 6.84971 6.87082C6.81617 6.83727 6.81209 6.77453 6.82951 6.71995C6.85629 6.63618 6.86315 6.55926 6.85982 6.49226C6.8563 6.42517 6.86973 6.34149 6.96351 6.30109C6.93006 6.26439 6.91328 6.21741 6.90328 6.18062C6.76594 6.13531 6.73851 6.13141 6.71062 6.06497C6.66382 5.9534 6.63491 5.79048 6.62101 5.70171C6.61415 5.65788 6.60952 5.61738 6.6085 5.58087C6.56448 5.49765 6.46681 5.31278 6.39119 5.17387C6.36814 5.13054 6.34453 5.08751 6.32039 5.04478C6.2533 4.92755 6.32039 4.77344 6.35375 4.683C6.3873 4.59255 6.41417 4.51212 6.38396 4.42167C6.35375 4.33123 6.35375 4.31103 6.34717 4.27424C6.3405 4.23735 6.3102 4.19046 6.27016 4.31788C6.22985 4.44512 6.15284 4.63277 6.1092 4.8271C6.08455 4.93747 6.06731 5.05757 6.07306 5.17387C6.07741 5.26246 6.09511 5.34864 6.13264 5.42676C6.21975 5.60765 6.32363 5.77519 6.3102 5.87574C6.29685 5.97619 6.27489 5.97971 6.27341 5.9963C6.25663 6.19063 6.17286 6.5626 6.12931 6.66973C6.08575 6.77685 5.91496 7.16551 5.87808 7.32971C5.84991 7.45547 5.77244 7.72476 5.70618 7.88443C6.20752 7.78963 6.66716 7.57501 7.05368 7.27124C7.06498 7.24307 7.06295 7.21694 7.03385 7.20239V7.20239ZM3.31044 2.80605C3.34741 2.85423 3.39588 2.89844 3.45908 2.93087C3.62329 3.01455 3.65684 3.07488 3.65684 3.21889C3.65684 3.36289 3.68362 3.65786 3.7306 3.70809C3.76063 3.67797 3.79426 3.63432 3.80084 3.62098C3.84773 3.70809 3.94226 3.86933 4.09229 3.96941C4.10239 3.97618 4.09785 4.01306 4.1225 4.01964C4.17272 4.03307 4.49771 4.0833 4.50781 4.15039C4.57491 4.0833 4.68203 3.91585 4.70214 3.85876C4.72216 3.80196 4.83948 3.62098 4.92659 3.52052C4.92659 3.48021 4.92658 3.45677 4.93001 3.44676C4.90647 3.46687 4.86969 3.51709 4.81603 3.54054C4.76238 3.56398 4.57491 3.64442 4.44082 3.71142C4.39392 3.73487 4.31015 3.76174 4.27661 3.51709C4.24306 3.27254 4.27661 3.14521 4.30005 3.08832C4.32349 3.03132 4.36705 2.981 4.45092 3.00454C4.53459 3.02799 4.6685 3.07822 4.70548 3.07822C4.71215 3.05143 4.73569 3.00111 4.64524 2.99111C4.58084 2.98388 4.41292 2.93606 4.31784 2.80605C4.27939 2.75397 4.2527 2.68799 4.24983 2.60579C4.05893 2.636 3.61995 2.69299 3.52284 2.71634C3.42572 2.73988 3.34334 2.75971 3.31183 2.53879C3.29839 2.44501 3.27495 2.31434 3.34195 2.36124C3.39551 2.32102 3.46974 2.27376 3.59984 2.29433C3.62366 2.29803 3.6534 2.31796 3.66277 2.33659C3.6699 2.36911 3.656 2.42221 3.64006 2.47179C3.61124 2.56159 3.55471 2.6259 3.73727 2.58401C3.92835 2.54018 4.17106 2.50367 4.23472 2.49023C4.24306 2.42499 4.29671 2.32435 4.36038 2.25068C4.42423 2.17664 4.43414 2.11668 4.43748 2.09324C4.44082 2.06979 4.41876 2.0646 4.38725 2.09324C4.35037 2.12669 4.23973 2.19378 4.13584 2.16691C4.09572 2.15662 4.04549 2.0798 4.01871 2.03634C4.04067 1.99028 4.09618 1.91077 4.16457 1.83061C3.80779 1.94497 3.47391 2.12354 3.17709 2.36031C3.17514 2.39747 3.18005 2.48384 3.20452 2.57901C3.22092 2.64286 3.25141 2.72932 3.31044 2.80605H3.31044ZM3.54297 7.38329C3.68022 7.32973 3.78855 7.33223 3.89474 7.47382C3.92486 7.51395 3.94831 7.63136 4.2063 7.52738C4.06896 7.36327 3.98658 7.16876 3.91152 6.90752C3.79281 6.49524 3.52453 6.02634 3.62332 5.81209C3.56642 5.75834 3.49942 5.55076 3.42899 5.5742C3.38173 5.58996 3.31519 5.59089 3.36866 5.43344C3.39285 5.36264 3.43261 5.27692 3.50776 5.17387C3.5995 5.04831 3.74444 4.89717 3.97842 4.71646C3.99863 4.69969 4.00196 4.68644 3.98852 4.67291C3.96508 4.64956 3.94164 4.62277 3.91819 4.60933C3.89475 4.5959 3.87121 4.60257 3.8511 4.62277C3.83099 4.64288 3.79754 4.66633 3.77743 4.67967C3.75732 4.69302 3.59654 4.53557 3.51276 4.42168C3.42899 4.30779 3.34197 4.271 3.31519 4.25756C3.34865 4.22068 3.42427 4.14071 3.39554 4.15035C3.34531 4.16703 3.25727 4.17824 3.16766 4.08325C3.05711 3.96612 3.10076 3.9057 3.07722 3.88902C3.05377 3.87225 2.93312 3.89903 2.84277 3.75836C2.75223 3.61759 2.716 3.55634 2.78902 3.45672C2.82599 3.40649 2.83934 3.38305 2.82933 3.31939C2.81923 3.25572 2.82933 3.2156 2.9131 3.13516C2.99687 3.05482 3.0471 2.98105 3.08389 2.98772C3.11318 2.9931 3.02848 2.88662 2.97723 2.806C2.96379 2.7845 2.95277 2.76513 2.94646 2.74984C2.93331 2.71741 2.91227 2.66162 2.90745 2.60157C2.31873 3.19215 1.99457 3.97632 1.99457 4.81033C1.99457 5.64593 2.32002 6.43167 2.91097 7.02262C3.04805 7.15972 3.19744 7.28393 3.35726 7.39367C3.42593 7.31916 3.50757 7.34798 3.54297 7.38329" fill="white"/>
<path d="M1.76261 0.775748C2.03728 0.846083 2.24319 1.06812 2.33345 1.19201C2.35661 1.22362 2.38043 1.21889 2.39044 1.19545C2.41175 1.14568 2.45076 0.984344 2.45076 0.860354C2.45076 0.57901 2.48931 0.467624 2.55974 0.337051C2.23105 0.35503 1.94266 0.524059 1.76261 0.775746V0.775748ZM1.59677 1.63777C2.11265 1.68466 2.27315 1.39646 2.3067 1.35281C2.34006 1.30935 2.29994 1.28248 2.28316 1.25903C2.19401 1.13412 1.99431 0.913192 1.71955 0.84286C1.62327 1.00169 1.56683 1.1874 1.56683 1.38682C1.56683 1.47338 1.57703 1.55734 1.59677 1.63777" fill="#A73832"/>
<path d="M3.64384 1.61762C3.42607 1.52708 3.16771 1.61076 2.98349 1.77164C2.79917 1.93241 2.70548 2.05594 2.64181 2.43792C2.63394 2.43811 2.62606 2.43811 2.61828 2.43811C2.34527 2.43811 2.09748 2.33423 1.91047 2.16353C2.22555 2.08309 2.49104 1.93918 2.78907 1.65774C3.08737 1.37631 3.23471 1.04798 3.27493 0.893875C3.31515 0.739765 3.25806 0.830211 3.22804 0.900452C3.18133 1.00934 3.02695 1.30254 2.72216 1.58732C2.41719 1.87218 2.18283 2.01267 1.86469 2.11988C1.7584 2.01081 1.67658 1.87848 1.62561 1.73151C1.73283 1.73818 2.0706 1.69926 2.23963 1.56053C2.46195 1.37825 2.48761 1.16187 2.51773 0.853563C2.54785 0.545438 2.59316 0.453698 2.66684 0.336472C3.22489 0.361862 3.66961 0.822335 3.66961 1.38678C3.66961 1.4661 3.66052 1.5433 3.64384 1.61762" fill="#A73832"/>
<path d="M3.61477 1.72294C3.56445 1.65261 3.38532 1.61879 3.10073 1.79662C3.07395 1.81348 3.05542 1.82516 3.08739 1.85695C3.14762 1.91737 3.23825 2.03144 3.30192 2.18555C3.44416 2.0636 3.55351 1.90439 3.61477 1.72295V1.72294ZM3.21789 2.25054C3.15766 2.1031 3.10743 1.99598 3.05053 1.92231C3.01976 1.88255 3.01365 1.86541 2.95666 1.91563C2.79829 2.05538 2.73722 2.26722 2.70367 2.43467C2.89383 2.41938 3.06981 2.35359 3.21789 2.25054Z" fill="#A73832"/>
<path d="M2.9299 3.42668C2.88634 3.41324 2.8528 3.46337 2.83269 3.50368C2.81258 3.54399 2.78904 3.58746 2.8528 3.6779C2.91646 3.76844 2.95603 3.82228 3.06723 3.81524C3.12089 3.8119 3.16768 3.77168 3.18446 3.74833C3.20123 3.72479 3.20457 3.76501 3.17778 3.80523C3.151 3.84536 3.1309 3.93923 3.18112 4.00289C3.23144 4.06656 3.33523 4.12012 3.47257 4.03977C3.6099 3.95943 3.66698 3.86222 3.69034 3.81857C3.71378 3.77511 3.71378 3.755 3.69034 3.72822C3.66698 3.70135 3.58988 3.57384 3.57311 3.32279C3.5631 3.17193 3.58988 3.07491 3.49601 3.02125C3.40223 2.96759 3.18761 2.84082 3.16101 2.59238C3.151 2.4986 3.15768 2.35459 3.06389 2.4316C2.97002 2.5087 2.97002 2.56226 2.96001 2.61916C2.94991 2.67624 2.9969 2.75316 3.03711 2.80681C3.07724 2.86047 3.12413 2.97769 3.16101 3.00781C3.1979 3.03802 3.22134 3.06147 3.25155 3.0648C3.28158 3.06814 3.40223 3.06814 3.43235 3.07824C3.46256 3.08834 3.47933 3.12522 3.40557 3.12522C3.33189 3.12522 3.218 3.14515 3.16769 3.15191C3.11755 3.15859 3.07066 3.16192 3.04712 3.26247C3.02368 3.36292 2.99013 3.48024 2.98679 3.51712C2.98346 3.55391 2.96335 3.57402 2.96335 3.59413C2.96335 3.61424 3.00357 3.71145 3.09401 3.61424C3.18446 3.51712 3.22134 3.42 3.23811 3.37302C3.25479 3.32613 3.275 3.3328 3.25813 3.40657C3.24145 3.48024 3.23645 3.66456 3.27157 3.72822C3.30947 3.79661 3.38583 3.86704 3.48267 3.81857C3.50277 3.80857 3.53623 3.79179 3.5631 3.79513C3.58988 3.79846 3.55801 3.84536 3.53456 3.86556C3.51112 3.88567 3.43411 3.97092 3.29844 3.84878C3.2648 3.81857 3.21837 3.75157 3.2079 3.66789C3.20457 3.64102 3.16768 3.63101 3.151 3.65446C3.13423 3.6779 3.04379 3.76167 2.98012 3.70135C2.91646 3.64102 2.89005 3.60766 2.92656 3.48024C2.93314 3.45679 2.94621 3.43168 2.9299 3.42668" fill="#FAB383"/>
<path d="M2.99687 3.23893C2.98241 3.2822 2.96999 3.33938 2.96332 3.35958C2.95656 3.37969 2.92653 3.42325 2.89966 3.36635C2.87297 3.30936 2.87426 3.26441 2.91643 3.22225C2.92987 3.20881 2.94988 3.18203 2.96332 3.19537C2.97676 3.20881 3.0002 3.22892 2.99687 3.23893ZM3.14759 3.08486C3.11998 3.09866 3.06104 3.09857 3.04037 3.14509C3.02694 3.1753 2.97338 3.14194 3.00016 3.10497C3.02694 3.06808 3.04714 3.07142 3.06382 3.06141C3.08059 3.0514 3.08736 3.02119 3.12081 3.03797C3.15427 3.05474 3.16094 3.07818 3.14759 3.08486V3.08486ZM5.3554 1.42645C5.26162 1.43646 5.17451 1.49355 5.0874 1.55378C5.0002 1.61402 4.6854 1.87877 4.61164 1.93233C4.68865 1.97255 4.70876 2.05299 4.68198 2.18699C4.67595 2.21674 4.68198 2.22721 4.70218 2.2071C4.72219 2.18699 4.81597 2.08653 4.81273 2.0061C4.8093 1.92566 4.77251 1.87877 4.76575 1.86867C4.75907 1.85866 4.79262 1.81844 4.82951 1.90222C4.86629 1.98599 4.85619 2.10321 4.74573 2.23388C4.63518 2.36454 4.54798 2.36111 4.50109 2.38465C4.45419 2.40809 4.4074 2.44489 4.45095 2.51531C4.49441 2.58574 4.57819 2.55887 4.61164 2.53542C4.64519 2.51188 4.69208 2.4851 4.79929 2.49521C4.90642 2.50521 4.94219 2.4371 4.86963 2.36454C4.84619 2.3411 4.78586 2.28744 4.85953 2.28744C4.90318 2.28744 4.95674 2.38465 4.98686 2.41143C5.01707 2.43821 5.08407 2.44822 5.17451 2.45499C5.26495 2.46166 5.40572 2.49511 5.40572 2.58231C5.40572 2.63588 5.37681 2.65154 5.33863 2.60919C5.32362 2.59232 5.30212 2.61882 5.28507 2.63588C5.22807 2.69296 5.08231 2.84698 4.97852 2.87376C4.87473 2.90054 4.83608 2.87042 4.69875 2.79675C4.56141 2.72308 4.43409 2.64931 4.3973 2.62587C4.36041 2.60242 4.28331 2.54877 4.3202 2.65608C4.35708 2.7632 4.44752 2.87376 4.62841 2.93418C4.8093 2.99432 4.83608 3.01452 4.8763 3.03463C4.91652 3.05474 4.89317 3.07485 4.83951 3.06808C4.7929 3.06234 4.7423 3.02119 4.78261 3.11173C4.82265 3.20218 4.88307 3.2992 5.06738 3.27585C5.25152 3.2524 5.25699 3.21339 5.37217 3.02119C5.39219 2.98765 5.41248 3.01119 5.39905 3.09829C5.4894 3.05474 5.53963 3.0413 5.59319 3.02787C5.64694 3.01452 5.78622 2.96717 5.87815 2.79675C5.92495 2.70964 5.95024 2.67971 5.94172 2.58908C5.93847 2.55526 5.98861 2.48853 6.03893 2.44155C6.08915 2.39475 6.2264 2.21711 6.15625 2.08978C6.08572 1.96245 5.9685 2.02621 5.9116 2.11999C5.85461 2.21386 5.79094 2.31765 5.78761 2.47843C5.74739 2.46509 5.70634 2.47982 5.68715 2.51189C5.67705 2.52875 5.52962 2.50864 5.4793 2.52199C5.42916 2.53542 5.41249 2.50521 5.46596 2.43488C5.51961 2.36454 5.70838 2.10961 5.69716 1.9189C5.69383 1.862 5.70143 1.85143 5.71051 1.80844C5.72228 1.75311 5.72747 1.75228 5.65861 1.71456C5.61385 1.6901 5.61117 1.62032 5.60338 1.56712C5.59495 1.51023 5.58411 1.50995 5.51961 1.52357C5.47189 1.53367 5.39219 1.48669 5.3554 1.42646" fill="#FAB383"/>
<path d="M4.96348 2.47515C4.94513 2.51704 4.89444 2.55717 4.77749 2.54382C4.71893 2.53715 4.66166 2.53641 4.65193 2.58237C4.64525 2.61425 4.61857 2.6124 4.58159 2.61091C4.54295 2.60924 4.50115 2.59914 4.49939 2.61258C4.49773 2.62592 4.6637 2.72471 4.71893 2.74983C4.77425 2.77503 4.85478 2.83489 4.91993 2.82859C5.00703 2.82025 5.08293 2.77716 5.21146 2.64094C5.26447 2.58487 5.30691 2.55559 5.25669 2.53205C5.22249 2.51621 5.18792 2.51194 5.14279 2.51194C5.09748 2.51194 5.00027 2.50527 4.96348 2.47515V2.47515ZM4.33859 2.47687C4.29337 2.47511 4.28837 2.44165 4.31849 2.39143C4.3486 2.34111 4.37724 2.29431 4.41736 2.2641C4.42404 2.28588 4.43747 2.31266 4.45758 2.32433C4.4308 2.35288 4.3954 2.38855 4.40207 2.45898L4.33859 2.47687V2.47687Z" fill="#FAB383"/>
<path d="M5.35853 2.2688C5.30098 2.2688 5.21554 2.25008 5.15438 2.20828C5.09247 2.16603 5.07181 2.14564 5.08274 2.08309C5.08942 2.04445 5.09285 2.0236 5.09525 2.00933C5.09692 1.99895 5.09813 1.99209 5.09952 1.98431C5.10471 1.95484 5.10304 1.93547 5.09424 1.92509C5.0896 1.91944 5.08293 1.91657 5.07514 1.91657C5.06236 1.91657 5.0454 1.92472 5.02362 1.9414C4.98822 1.9149 4.95477 1.88515 4.92993 1.86319C4.91066 1.84604 4.89676 1.83372 4.88805 1.82797C4.8811 1.82334 4.87266 1.81593 4.87174 1.80684C4.871 1.79989 4.8747 1.79248 4.88258 1.78451C4.8874 1.77969 4.8937 1.77867 4.90222 1.77867L4.90612 1.77877H4.9101C4.91612 1.77877 4.92734 1.77877 4.93466 1.77024C4.94189 1.76199 4.94365 1.74809 4.9404 1.7252C4.9405 1.72391 4.943 1.7214 4.95811 1.7214C4.96218 1.7214 4.96644 1.7215 4.97052 1.72168C4.97497 1.72187 4.97914 1.72205 4.98285 1.72205C4.99156 1.72205 4.99693 1.72113 5.00092 1.71918C5.00842 1.71547 5.01037 1.70815 5.01167 1.70287C5.01361 1.69546 5.01445 1.6924 5.02594 1.6924C5.03242 1.6924 5.04113 1.69379 5.05179 1.69647C5.05361 1.69695 5.05548 1.6972 5.05735 1.69722C5.06829 1.69722 5.07357 1.6886 5.07737 1.6823L5.07941 1.67915C5.08367 1.67257 5.08775 1.66905 5.09711 1.66905C5.09933 1.66905 5.10174 1.66923 5.10443 1.66969C5.11351 1.67118 5.12157 1.67322 5.12871 1.67488C5.13844 1.67729 5.14678 1.67933 5.15419 1.67933C5.17393 1.67933 5.18014 1.6645 5.18301 1.6532C5.18904 1.63059 5.19367 1.62373 5.20284 1.62373C5.21091 1.62373 5.22295 1.62864 5.23861 1.63837C5.25233 1.6469 5.26391 1.65097 5.2741 1.65097C5.28949 1.65097 5.30042 1.64134 5.30385 1.62429C5.30394 1.62392 5.30422 1.6228 5.30849 1.6228C5.3184 1.6228 5.3361 1.62948 5.35436 1.64023L5.36344 1.64532C5.39485 1.66321 5.46018 1.70037 5.53469 1.78738C5.55174 1.80721 5.55665 1.82241 5.55535 1.82584C5.55508 1.82575 5.55461 1.82575 5.55424 1.82575C5.55294 1.82575 5.55128 1.82603 5.54961 1.8263C5.53821 1.82806 5.52116 1.83066 5.51764 1.85929C5.5156 1.87505 5.51069 1.88432 5.50828 1.8858C5.50828 1.88533 5.50587 1.88348 5.50235 1.87653C5.49781 1.86754 5.49178 1.85837 5.48159 1.85837C5.47984 1.85838 5.47809 1.85863 5.4764 1.85911C5.47575 1.85781 5.47436 1.85549 5.4726 1.85068C5.47103 1.84623 5.46602 1.83279 5.45351 1.83279C5.44758 1.83279 5.44267 1.83622 5.43915 1.83863C5.43846 1.83904 5.43781 1.8395 5.4372 1.84002C5.43526 1.83501 5.42997 1.82269 5.41802 1.82269C5.41487 1.82269 5.41228 1.82343 5.41024 1.82408C5.40942 1.82436 5.40858 1.82458 5.40773 1.82473C5.40773 1.82445 5.40681 1.82325 5.40542 1.8201C5.4031 1.81472 5.39819 1.81166 5.3917 1.81166C5.38707 1.81166 5.38197 1.81324 5.37659 1.81491C5.37085 1.81667 5.36603 1.81806 5.36251 1.81806C5.35955 1.81806 5.3588 1.81722 5.35816 1.81602C5.35352 1.80749 5.34666 1.8062 5.34296 1.8062C5.33703 1.8062 5.33156 1.80916 5.32628 1.81194C5.32211 1.81407 5.31747 1.81667 5.31423 1.81667C5.3134 1.81667 5.31154 1.81667 5.30895 1.81314C5.30709 1.81083 5.30163 1.80369 5.29356 1.80369C5.2856 1.80369 5.28078 1.81018 5.27688 1.81537L5.27531 1.81759C5.27142 1.82269 5.26873 1.82464 5.26576 1.82464C5.26447 1.82464 5.26308 1.82427 5.2615 1.82362C5.25705 1.82204 5.25326 1.8213 5.24973 1.8213C5.23815 1.8213 5.23296 1.82973 5.23009 1.83428C5.22731 1.83872 5.22684 1.83891 5.22582 1.83891C5.22508 1.83891 5.22323 1.83872 5.21989 1.83733C5.21582 1.83548 5.21202 1.83455 5.2084 1.83455C5.19496 1.83455 5.18931 1.84623 5.18561 1.85392C5.18171 1.86189 5.18005 1.86402 5.17754 1.86402C5.17673 1.86401 5.17591 1.86389 5.17513 1.86365C5.16957 1.86217 5.16531 1.86152 5.16151 1.86152C5.14251 1.86152 5.14001 1.87755 5.13723 1.8946C5.13677 1.89756 5.13631 1.90062 5.13566 1.90396C5.13093 1.93111 5.11879 2.04324 5.12065 2.07206C5.12231 2.09894 5.15734 2.09894 5.17059 2.09894C5.19543 2.09894 5.22934 2.0944 5.27142 2.08856C5.35389 2.07706 5.50559 2.03129 5.5839 1.96596C5.60391 1.94928 5.61948 1.94742 5.62523 1.94742C5.63014 1.94742 5.63245 1.94863 5.63292 1.94909C5.63357 1.95307 5.62412 1.97439 5.60438 1.99098C5.60252 1.99274 5.60021 1.99459 5.5978 1.99682C5.57333 2.01831 5.51616 2.06882 5.40069 2.09125C5.29023 2.11275 5.1882 2.13211 5.15391 2.13211C5.14947 2.13211 5.14724 2.13174 5.14631 2.13156C5.14428 2.13109 5.14251 2.13082 5.14075 2.13082C5.1351 2.13082 5.13065 2.13369 5.12889 2.13841C5.12667 2.14462 5.1301 2.15194 5.13844 2.15899C5.14947 2.16825 5.16494 2.17372 5.17977 2.17372C5.18431 2.17372 5.18876 2.17326 5.19311 2.17224C5.197 2.17233 5.20914 2.18363 5.21795 2.19188C5.24176 2.21422 5.27781 2.24785 5.32535 2.24785C5.38512 2.24785 5.47158 2.18354 5.49651 2.1639C5.508 2.15491 5.53423 2.14147 5.54924 2.13721C5.54674 2.14036 5.54294 2.14472 5.53691 2.15074L5.53256 2.1551C5.47751 2.21023 5.42061 2.26722 5.36529 2.26871C5.36307 2.2688 5.36084 2.2688 5.35853 2.2688V2.2688ZM6.06576 2.19377C6.02693 2.2212 6.00543 2.23066 6.00209 2.27745C5.99876 2.32435 5.98949 2.40441 5.97188 2.41155C5.94909 2.42081 5.95224 2.36809 5.94519 2.38477C5.93509 2.40821 5.90655 2.39811 5.8983 2.37642C5.89451 2.36697 5.8112 2.3679 5.87819 2.27078C5.9388 2.18284 5.98532 2.13678 6.02887 2.11667C6.07243 2.09656 6.14619 2.13678 6.06576 2.19377" fill="#061922"/>
<path d="M7.70565 6.17565C7.69017 6.13626 7.71742 6.07 7.80119 6.11689C7.88505 6.16388 7.94863 6.20419 7.88839 6.38832C7.82788 6.57255 7.78451 6.67976 7.76097 6.75687C7.73762 6.83397 7.64708 6.93108 7.6772 6.80042C7.7075 6.66976 7.72335 6.51185 7.71065 6.43188C7.68739 6.28453 7.73465 6.29324 7.71918 6.22587C7.71436 6.20511 7.71139 6.18973 7.70565 6.17565V6.17565ZM8.02239 6.33474C8.04648 6.40712 8.07262 6.57253 8.0324 6.63953C7.99218 6.70662 7.86819 6.89085 7.82139 6.93783C7.77441 6.98472 7.73762 6.96461 7.76764 6.91429C7.79785 6.86407 7.83807 6.79707 7.83807 6.77362C7.83807 6.75018 7.83483 6.72339 7.87495 6.64629C7.91508 6.56928 7.98551 6.3112 7.99218 6.29119C7.99885 6.27108 8.01562 6.31463 8.02239 6.33474V6.33474ZM7.15787 6.95456C7.13786 6.89432 7.12776 6.80712 7.0943 6.75689C7.12108 6.68313 7.2094 6.4851 7.35896 6.42523C7.37564 6.41847 7.38584 6.40169 7.37907 6.38835C7.37221 6.37491 7.39918 6.365 7.41253 6.41189C7.42605 6.45859 7.44941 6.59268 7.44941 6.59268C7.45608 6.62289 7.44274 6.64634 7.43606 6.68656C7.4293 6.72678 7.41252 6.81722 7.42263 6.86402C7.43264 6.91091 7.44941 6.94455 7.5431 6.92444C7.59017 6.91425 7.58684 6.90099 7.60009 6.86068C7.61353 6.82056 7.65041 6.70657 7.66385 6.64291C7.67719 6.57925 7.6656 6.42356 7.65217 6.38335C7.63864 6.34313 7.65717 6.20737 7.64707 6.18059C7.63706 6.1538 7.6303 6.11377 7.54662 6.0869C7.46284 6.06002 7.4394 6.05326 7.38241 6.11025C7.32542 6.16734 7.30549 6.19069 7.27862 6.21747C7.25175 6.24425 7.18475 6.22071 7.24165 6.16734C7.29873 6.11377 7.35238 6.06002 7.36888 6.04316L7.35238 5.9996H7.32208C7.23154 6.09023 7.11098 6.1438 7.03054 6.16048C7.00034 6.16678 6.94344 6.17048 6.98365 6.22414C6.99376 6.23767 6.99709 6.27446 7.02063 6.26112C7.04398 6.24758 7.08077 6.18735 7.11432 6.21413C7.14796 6.24082 7.10774 6.30467 7.06743 6.33479C7.02739 6.365 6.98365 6.39502 6.95363 6.41189C6.92342 6.42857 6.90665 6.44525 6.90998 6.4989C6.91332 6.55246 6.91666 6.64977 6.88644 6.72344C6.85633 6.79711 6.87319 6.81722 6.89988 6.86745C6.92675 6.91777 6.97031 6.96123 6.98365 7.04167C6.99709 7.12201 7.00386 7.14212 7.05742 7.13545C7.11098 7.12877 7.13118 7.10524 7.15129 7.07178L7.15787 6.95456H7.15787Z" fill="#FAB383"/>
<path d="M7.17797 7.10858C7.15462 7.14889 7.11431 7.21246 7.11431 7.26945C7.11431 7.32644 7.05741 7.38677 7.06408 7.41355C7.07084 7.44024 7.14461 7.51067 7.18807 7.58443C7.23153 7.65811 7.28843 7.76857 7.28843 7.95289C7.28843 8.1373 7.2282 8.38843 7.22162 8.42198C7.21476 8.45543 7.19817 8.4823 7.2484 8.52919C7.29872 8.57618 7.37906 8.66319 7.40927 8.86076C7.43939 9.05852 7.4595 9.1624 7.47294 9.17241C7.48637 9.18251 7.48294 9.19919 7.48294 9.23607C7.48294 9.27286 7.51631 9.48405 7.53994 9.52418C7.56329 9.56449 7.55995 9.2964 7.55652 9.2193C7.55319 9.14229 7.55995 8.77384 7.57339 8.72028C7.58683 8.66653 7.60017 8.6062 7.55319 8.5392C7.50648 8.4722 7.42604 8.35488 7.48637 8.16074C7.5467 7.96623 7.64373 7.96975 7.61352 7.89265C7.5834 7.81555 7.52983 7.76199 7.48971 7.71853C7.44949 7.67488 7.48137 7.57109 7.47961 7.52744C7.47627 7.44691 7.41252 7.43366 7.40584 7.34312C7.39917 7.25268 7.39241 7.17901 7.4595 7.08856C7.5265 6.99821 7.43605 7.00146 7.40584 6.94446C7.37563 6.88756 7.3596 6.81139 7.38583 6.69324C7.39917 6.63282 7.39241 6.61623 7.37563 6.60946C7.35895 6.60279 7.28843 6.58936 7.28843 6.58936L7.18474 6.79712C7.2016 6.83725 7.20818 6.89766 7.20818 6.93779L7.17797 7.10858V7.10858Z" fill="#A73832"/>
<path d="M6.20982 3.03129C6.12725 3.14129 5.99881 3.41994 5.93839 3.59407C5.87816 3.76838 5.74073 4.18381 5.83803 4.45848C5.93506 4.73315 6.12614 4.55902 6.16951 4.45514C6.21315 4.35135 6.28025 4.17371 6.30035 4.12682C6.32037 4.07993 6.33047 4.05306 6.36726 4.16361C6.40414 4.27425 6.4577 4.53892 6.4577 4.56236C6.4577 4.58581 6.42073 4.6529 6.3807 4.75669C6.34048 4.86048 6.31704 4.93424 6.35716 4.998C6.39738 5.06157 6.55492 5.3329 6.60514 5.45022C6.63526 5.52056 6.66204 5.5339 6.74248 5.51379C6.82291 5.49378 7.01724 5.42669 7.07414 5.3999C7.13113 5.37312 7.10426 5.32614 7.08748 5.26933C7.06209 5.18259 6.96034 4.69961 6.96034 4.63603C6.96034 4.57237 6.9773 4.48897 6.89316 4.58247C6.86323 4.61602 6.82291 4.58247 6.83292 4.53549C6.84302 4.4886 6.94338 3.83528 6.95024 3.75494C6.89316 3.63095 6.7257 3.23896 6.67891 3.16862C6.63192 3.09829 6.61524 3.09495 6.54481 3.13183C6.47448 3.16862 6.31731 3.22515 6.26004 3.09161C6.25003 3.06808 6.23335 3.01451 6.27348 3.00784L6.24327 2.99774C6.24327 2.99774 6.21973 3.01785 6.20982 3.03129H6.20982ZM7.08746 5.4401C7.02518 5.47587 6.81288 5.56733 6.72577 5.58086C6.63634 5.59467 6.65877 5.61774 6.67554 5.68483C6.69213 5.75165 6.74245 5.95265 6.76923 6.02307C6.7961 6.0935 6.8329 6.0922 6.90332 6.09017C7.01054 6.08683 7.19143 6.03985 7.32209 5.91919C7.28512 5.87564 7.22062 5.66686 7.20153 5.57743C7.18133 5.48374 7.18133 5.38653 7.08746 5.4401V5.4401ZM5.16775 3.50698C5.16107 3.52051 5.13763 3.56064 5.08416 3.56064C5.0306 3.56064 4.98695 3.54387 4.9534 3.59076C4.91995 3.63765 4.73572 3.86219 4.69541 3.99943C4.73572 4.0832 4.78938 4.23397 4.8295 4.34119C4.96017 4.23073 5.37727 3.82364 5.45595 3.74487C5.48625 3.71475 5.48949 3.68797 5.44594 3.65785C5.40238 3.62755 5.24151 3.52709 5.21473 3.51041C5.18795 3.49355 5.17451 3.49355 5.16775 3.50698V3.50698ZM4.11251 4.09666C4.08674 4.1999 4.0355 4.38144 3.95173 4.5222C3.98518 4.57576 4.01196 4.62274 4.05218 4.63943C4.14596 4.57243 4.32351 4.40812 4.37374 4.34789C4.42406 4.28765 4.48772 4.19712 4.48772 4.1771C4.48772 4.1569 4.46428 4.15032 4.43416 4.1569C4.40395 4.16366 4.27996 4.11408 4.1594 4.08999C4.12594 4.08323 4.11584 4.08323 4.11251 4.09666V4.09666ZM4.03889 3.99617C4.00201 3.98884 3.87468 3.85207 3.83103 3.77839C3.78757 3.70463 3.78071 3.71139 3.76413 3.76496C3.74735 3.81852 3.68369 3.93584 3.64014 3.99283C3.59658 4.04973 3.48269 4.19716 3.45248 4.23071C3.42227 4.26416 3.45248 4.2776 3.47936 4.30438C3.50614 4.33116 3.64347 4.49862 3.67359 4.5355C3.7038 4.57238 3.73735 4.63947 3.8176 4.56571C3.89813 4.49194 3.99524 4.35795 4.03889 4.22061C4.08235 4.08318 4.08559 4.01118 4.12248 4.01952L4.12414 3.99107L4.11414 3.97439L4.09403 3.95761C4.09903 3.96929 4.09903 3.97939 4.09078 3.99283C4.08235 4.00617 4.05557 3.99941 4.03889 3.99616V3.99617ZM6.08919 0.913934C5.99893 1.0205 5.81767 1.11484 5.51298 1.19194C5.20809 1.26904 4.91656 1.48348 4.79266 1.58726C4.66858 1.69115 4.35619 1.94691 4.20634 2.00937C4.16622 2.02614 4.08068 2.08295 4.18957 2.09648C4.27001 2.10658 4.3269 2.05969 4.50112 1.93236C4.67543 1.80504 4.81064 1.7132 4.94343 1.58393C5.06742 1.46327 5.29187 1.34938 5.53299 1.28238C5.7743 1.21529 6.09114 1.11002 6.18297 1.01096C6.22643 0.96416 6.22996 0.94062 6.18974 0.900402C6.14952 0.860276 6.12607 0.870379 6.08919 0.913934H6.08919ZM4.55137 1.96754C4.52514 1.982 4.51458 1.99766 4.48428 2.09487C4.45425 2.19199 4.45759 2.24888 4.4827 2.27242C4.50096 2.28938 4.52783 2.29086 4.54136 2.29086C4.55137 2.29086 4.56147 2.29429 4.55989 2.26575C4.55804 2.2373 4.55619 2.11581 4.64691 2.06141C4.66368 2.05131 4.64469 1.98107 4.58491 1.99099C4.56481 1.99442 4.58491 1.9491 4.55137 1.96754V1.96754ZM3.51613 2.35116C3.56311 2.35116 3.59323 2.35116 3.58989 2.40472C3.58655 2.45838 3.56311 2.53205 3.55977 2.58237C3.55634 2.6326 3.55634 2.65261 3.58655 2.65261C3.61658 2.65261 3.543 2.68282 3.50269 2.68959C3.46256 2.69626 3.40066 2.71934 3.36869 2.54883C3.35868 2.49517 3.36202 2.41149 3.35535 2.39138C3.3989 2.37127 3.45876 2.35116 3.51612 2.35116H3.51613ZM4.40671 2.49423C4.41913 2.56179 4.43757 2.56049 4.42404 2.57059C4.4106 2.58069 4.39661 2.54502 4.34194 2.55391C4.29004 2.56225 3.86793 2.62758 3.83782 2.63101C3.74404 2.64093 3.73894 2.62582 3.82605 2.60747C3.91316 2.58903 4.23184 2.53093 4.32692 2.51184L4.40671 2.49423ZM3.89812 7.61781C3.94167 7.6446 4.04546 7.67481 4.22311 7.60104C4.40066 7.52728 4.59832 7.5775 4.62844 7.70483C4.65865 7.83225 4.65967 7.99637 4.605 8.06679C4.5581 8.12703 4.51455 8.12036 4.46099 8.10368C4.36387 8.07319 4.13933 7.96968 4.07567 7.93947C4.01201 7.90926 3.90479 7.87581 3.82769 7.87581C3.79757 7.81214 3.80091 7.70149 3.82101 7.66137C3.84113 7.62115 3.84112 7.58093 3.85781 7.59103C3.87467 7.60104 3.89811 7.61781 3.89811 7.61781H3.89812ZM4.60169 8.21075C4.64524 8.21075 4.7241 8.22909 4.74903 8.30805C4.76905 8.37162 4.8998 8.3883 4.95679 8.38496C5.01369 8.38181 5.00369 8.41184 5.00026 8.44538C4.99701 8.47884 4.98691 8.57948 4.98691 8.6196C4.98691 8.65982 4.99701 8.8004 5.00369 8.82727C5.01036 8.85405 4.98691 8.86749 4.95679 8.88083C4.92668 8.89427 4.81603 8.92773 4.74579 8.8775C4.70872 8.85109 4.66526 8.81393 4.70881 8.8105C4.75237 8.80726 4.65534 8.42861 4.62847 8.36161C4.60169 8.29452 4.52449 8.21075 4.60169 8.21075V8.21075ZM3.44912 7.42016C3.46719 7.42609 3.47599 7.4437 3.48933 7.46705C3.50277 7.4905 3.50731 7.51079 3.486 7.53405C3.44912 7.57427 3.40556 7.75849 3.41233 7.88925C3.38888 7.88249 3.33866 7.87248 3.31188 7.87915C3.30177 7.80539 3.30844 7.57427 3.34199 7.5005C3.37554 7.42693 3.4089 7.40672 3.44912 7.42016ZM3.45581 9.46377C3.5393 9.55774 3.69702 9.70174 3.81425 9.75197C3.93157 9.8022 4.00867 9.81897 4.11246 9.80896C4.19651 9.80081 4.17946 9.83574 4.11246 9.84584C4.04546 9.85585 3.89135 9.85585 3.79099 9.8022C3.69035 9.74854 3.53096 9.64948 3.42903 9.50408C3.40558 9.47044 3.42903 9.43374 3.45581 9.46377V9.46377ZM5.20127 9.22929C5.13326 9.26024 5.00704 9.32316 4.88648 9.35328C4.89982 9.41361 4.90325 9.44039 4.90325 9.45707C4.97683 9.45707 5.11889 9.40564 5.23482 9.33317C5.26169 9.31631 5.2717 9.29638 5.26169 9.27284C5.2515 9.2494 5.23816 9.21252 5.20127 9.22929V9.22929ZM4.40739 8.95455C4.39062 8.93787 4.48597 8.91785 4.50608 8.91785C4.52962 8.93286 4.57234 8.97058 4.58828 8.98651C4.59838 8.99643 4.59337 9.0031 4.58318 9.00996C4.57326 9.01654 4.51461 9.03174 4.48773 9.0334C4.45761 9.00662 4.41573 8.96298 4.40739 8.95455ZM4.58494 7.56089C4.55807 7.54069 4.5615 7.53077 4.57493 7.51057C4.58828 7.49046 4.60171 7.47712 4.61506 7.47035C4.6284 7.46368 4.64861 7.46034 4.67196 7.49379C4.6954 7.52734 4.82273 7.73854 4.84951 7.79534C4.87639 7.85233 4.90993 7.81545 4.89649 7.782C4.88315 7.74845 4.85628 7.69155 4.84618 7.67478C4.88315 7.56089 4.91994 7.38667 4.91994 7.27278C4.91994 7.15871 4.89316 7.045 4.87296 7.00469C4.96349 7.00802 5.16106 7.00469 5.23817 6.98124C5.31536 6.9577 5.25151 6.95113 5.22139 6.95446C5.19127 6.95771 4.97461 6.95696 4.81606 6.93769C4.54139 6.90414 4.27154 6.74966 4.18628 6.64282C4.17275 6.62614 4.09231 6.63272 4.15941 6.68646C4.2265 6.74003 4.39738 6.90007 4.64861 6.94445C4.7055 6.95446 4.79586 6.97114 4.80938 7.17891C4.82273 7.38667 4.80271 7.52058 4.80271 7.54069C4.80271 7.56089 4.78937 7.56756 4.7725 7.54402C4.75573 7.52058 4.69883 7.44366 4.66853 7.42698C4.6385 7.41012 4.61849 7.41345 4.59161 7.43356C4.56483 7.45367 4.52452 7.49379 4.50784 7.5139L4.58494 7.56089V7.56089ZM4.04549 8.21582C4.02037 8.21582 3.8696 8.22758 3.83782 8.21582C3.80594 8.20414 3.78536 8.16753 3.8077 8.15215C3.83439 8.13371 3.88638 8.15725 3.93827 8.15725C3.99026 8.15725 4.04549 8.14391 4.05892 8.15215C4.07227 8.16059 4.0908 8.15725 4.0908 8.22091L4.04549 8.21582ZM3.68029 9.13544C3.63673 9.10876 3.58632 8.98458 3.57641 8.73678C3.57316 8.65301 3.60671 8.51225 3.6334 8.44543C3.66018 8.37834 3.61663 8.40512 3.60671 8.42857C3.59652 8.45201 3.56306 8.54588 3.55296 8.61613C3.54305 8.68655 3.52618 8.79035 3.55296 8.94112C3.57984 9.09189 3.59327 9.13878 3.59985 9.16565L3.68029 9.13544H3.68029Z" fill="white"/>
<path d="M5.21304 1.13508C5.25835 1.14009 5.30858 1.13675 5.32035 1.10496C5.33203 1.07318 5.32192 1.05298 5.30691 1.0463C5.29181 1.03963 5.28513 1.0413 5.29181 1.01109C5.29848 0.980971 5.32035 0.984402 5.31868 0.937419C5.31692 0.890528 5.2818 0.88886 5.24992 0.899052C5.21813 0.908969 5.20637 0.923982 5.17616 0.964199C5.14613 1.00442 5.15948 0.937419 5.16448 0.925649C5.16921 0.914807 5.18125 0.837612 5.13992 0.823713C5.11666 0.835388 5.09368 0.846973 5.07163 0.858372C5.0644 0.873105 5.05874 0.890344 5.05226 0.907302C5.03549 0.950854 5.0151 0.918144 5.00027 0.897199C5.00027 0.897108 5.00008 0.897014 4.99999 0.896922C4.95533 0.921667 4.91622 0.94483 4.88647 0.964199C4.88323 0.966332 4.87971 0.968741 4.87647 0.970873C4.88045 0.99728 4.91224 1.03073 4.93003 1.04297C4.95181 1.05807 4.93827 1.08652 4.91159 1.08652C4.88471 1.08652 4.85126 1.06817 4.81771 1.10821C4.78417 1.14852 4.80594 1.18707 4.83792 1.18707C4.8697 1.18707 4.89648 1.19874 4.90825 1.23553C4.91993 1.27242 4.93003 1.28761 4.97358 1.29252C5.01704 1.29753 5.04216 1.26407 5.05392 1.24397C5.06569 1.22386 5.0808 1.19541 5.09915 1.20217C5.12649 1.21209 5.12306 1.24082 5.11472 1.27139C5.14622 1.25286 5.17838 1.23544 5.21267 1.21876C5.2072 1.1904 5.19033 1.16427 5.17792 1.15185C5.16281 1.13675 5.16773 1.13008 5.21304 1.13508V1.13508ZM5.58665 0.649292C5.57118 0.652906 5.55468 0.657262 5.53819 0.661989C5.54616 0.70026 5.56163 0.749467 5.5532 0.75651C5.5431 0.764849 5.50455 0.771617 5.47443 0.779862C5.44431 0.788295 5.37222 0.855386 5.4091 0.903854C5.44589 0.952504 5.45766 0.980954 5.46442 1.00616C5.471 1.03127 5.53133 1.06139 5.57312 1.01107C5.6151 0.960937 5.64689 0.905613 5.65708 0.940734C5.66551 0.970298 5.6632 1.04175 5.65736 1.08011C5.66607 1.07835 5.67487 1.0765 5.68377 1.07474C5.70054 0.887265 5.65384 0.753173 5.58665 0.649292ZM4.66693 1.54884C4.64358 1.53049 4.63682 1.50195 4.66517 1.49361C4.6938 1.48517 4.73236 1.4785 4.80269 1.44838C4.87293 1.41817 4.83614 1.36628 4.80445 1.35284C4.77258 1.33941 4.76905 1.30938 4.77258 1.27741C4.77591 1.24563 4.76748 1.19883 4.70548 1.22227C4.64358 1.24563 4.66517 1.30595 4.64692 1.32606C4.62838 1.34617 4.61847 1.33941 4.62171 1.30938C4.62514 1.27917 4.59836 1.25906 4.58325 1.2523C4.57139 1.2472 4.54572 1.24108 4.52376 1.23932C4.45963 1.29715 4.40097 1.35766 4.35649 1.41771C4.3665 1.43838 4.38994 1.46136 4.40227 1.46507C4.41913 1.47016 4.44425 1.48193 4.44239 1.51538C4.441 1.54365 4.37725 1.5456 4.33536 1.54661C4.36493 1.62668 4.39504 1.68349 4.43702 1.72889C4.44638 1.72621 4.45889 1.72194 4.47603 1.71472C4.52793 1.69294 4.54461 1.61417 4.55304 1.59073C4.56147 1.56728 4.58325 1.57228 4.59836 1.60249C4.60892 1.62362 4.61272 1.64308 4.6142 1.66208C4.64376 1.63252 4.6724 1.6049 4.70057 1.57886C4.69204 1.57043 4.68157 1.56042 4.66693 1.54884H4.66693ZM5.55642 3.55058C5.56643 3.54891 5.53965 3.43011 5.56161 3.42501C5.5833 3.42001 5.59321 3.49034 5.64019 3.48191C5.68718 3.47357 5.69886 3.42677 5.69218 3.37479C5.68551 3.3228 5.71563 3.35134 5.73917 3.31446C5.76243 3.27767 5.7122 3.22744 5.65521 3.26256C5.59831 3.29769 5.60841 3.2508 5.63862 3.23245C5.66883 3.21391 5.64696 3.14701 5.5833 3.16869C5.53724 3.18454 5.51398 3.1547 5.49193 3.14209C5.47487 3.14867 5.4581 3.15581 5.44123 3.16332C5.43753 3.17629 5.44049 3.19204 5.44429 3.20891C5.44911 3.23041 5.4593 3.28601 5.42419 3.26257C5.39351 3.24218 5.35209 3.23068 5.34041 3.26924C5.32864 3.30779 5.35209 3.31121 5.34875 3.33457C5.34532 3.35801 5.28509 3.36302 5.31354 3.41157C5.34199 3.46013 5.38397 3.43344 5.41251 3.415C5.44096 3.39656 5.46774 3.41834 5.45773 3.44345C5.44976 3.46301 5.43401 3.52899 5.4329 3.57245C5.44624 3.58125 5.46023 3.5907 5.47487 3.60108C5.49165 3.58422 5.52325 3.55632 5.55642 3.55058V3.55058ZM4.64358 3.43511C4.6686 3.42844 4.71725 3.48024 4.76081 3.45013C4.80445 3.42001 4.74236 3.38989 4.7508 3.36469C4.75914 3.33957 4.77925 3.29101 4.74904 3.26757C4.71892 3.24412 4.68704 3.2659 4.65535 3.30111C4.62338 3.33624 4.63515 3.26914 4.65192 3.24079C4.6737 3.2039 4.65192 3.1787 4.61504 3.17203C4.57815 3.16535 4.56648 3.21725 4.54137 3.1938C4.50142 3.15664 4.43915 3.17203 4.45426 3.22401C4.46936 3.276 4.48595 3.29268 4.45426 3.29936C4.42247 3.30603 4.39226 3.22235 4.35547 3.28944C4.3185 3.35625 4.37716 3.37645 4.37215 3.42677C4.36715 3.477 4.38726 3.53056 4.41738 3.53557C4.44758 3.54066 4.47928 3.50712 4.49605 3.4871C4.51292 3.46699 4.55304 3.45189 4.54804 3.49035C4.54452 3.51694 4.54276 3.57217 4.54174 3.60396C4.60345 3.57393 4.66953 3.54261 4.70548 3.53056C4.70698 3.53004 4.70846 3.52948 4.70993 3.5289C4.69316 3.52213 4.66934 3.51101 4.64692 3.49535C4.61337 3.4719 4.61847 3.44188 4.64358 3.43511V3.43511ZM3.90142 4.96116C3.97852 4.93771 3.98186 4.99804 3.97176 5.04826C3.96175 5.09849 3.96175 5.20571 3.96508 5.25927L4.09232 5.26613C4.08565 5.23249 4.09232 5.13528 4.09575 5.07848C4.09899 5.02139 4.15607 4.93428 4.17618 5.02139C4.19629 5.10859 4.28331 5.11193 4.34364 5.07505C4.40396 5.03816 4.44761 4.95782 4.51118 4.84384C4.57494 4.72995 4.49117 4.69974 4.44085 4.7065C4.39062 4.71318 4.3403 4.71985 4.45429 4.62616C4.5602 4.53887 4.38191 4.49503 4.29999 4.47863C4.16497 4.62041 3.999 4.78101 3.85119 4.9075C3.83229 4.92363 3.81468 4.9391 3.79782 4.95412C3.81552 4.96431 3.85027 4.97663 3.90142 4.96116V4.96116ZM3.76739 5.80545C3.83106 5.78525 3.87127 5.92268 3.96506 5.84225C4.05893 5.7619 3.99184 5.6949 3.9886 5.6279C3.98517 5.56072 4.06227 5.53403 4.03891 5.45035C4.00305 5.32265 3.88462 5.44358 3.81095 5.51392C3.73728 5.58425 3.73394 5.52726 3.80771 5.41356C3.88138 5.29957 3.76072 5.26269 3.68705 5.2929C3.62153 5.31959 3.56139 5.29346 3.52293 5.25908C3.49458 5.30439 3.47382 5.34628 3.45251 5.39002C3.38884 5.52068 3.4324 5.52393 3.47938 5.52393C3.52618 5.52393 3.62672 5.72168 3.64007 5.75838C3.64479 5.77154 3.67917 5.82176 3.72477 5.88598C3.72208 5.85429 3.7282 5.81778 3.76739 5.80545ZM5.60004 4.48538C5.53972 4.47203 5.46141 4.46193 5.45261 4.58592C5.44927 4.63281 5.49607 4.66979 5.53972 4.68647C5.58327 4.70315 5.5765 4.73327 5.52961 4.71658C5.48282 4.69972 5.44594 4.68981 5.41257 4.78692C5.37884 4.88404 5.43926 4.89757 5.46947 4.90424C5.49959 4.91091 5.52294 4.91758 5.51627 4.9579C5.5095 4.99811 5.48949 5.11525 5.5665 5.12535C5.6436 5.13536 5.71051 5.04157 5.73404 4.99468C5.75758 4.94779 5.78418 4.90081 5.79103 4.95447C5.79771 5.00812 5.7876 5.03481 5.76091 5.09514C5.73404 5.15547 5.73404 5.18234 5.77426 5.179C5.81448 5.17548 5.88148 5.179 5.90159 5.13193C5.9217 5.08513 5.9519 4.99468 5.95524 4.93102C5.95719 4.89117 5.99213 4.88672 6.01798 4.88904C6.02556 4.82463 6.0348 4.76042 6.04569 4.69648C5.91419 4.71612 5.80225 4.55553 5.76332 4.41652C5.71857 4.46517 5.65277 4.49715 5.60004 4.48538V4.48538ZM4.97358 4.46198C4.95004 4.5021 4.88314 4.61608 4.91316 4.65297C4.94337 4.68976 4.97682 4.61608 5.0037 4.64296C5.03057 4.66974 5.09081 4.69977 5.09081 4.67975C5.09081 4.65964 5.09748 4.61942 5.10758 4.56586C5.11768 4.5122 5.14103 4.48209 5.16448 4.52564C5.18792 4.5691 5.22138 4.60598 5.30515 4.58588C5.38892 4.56586 5.37892 4.47866 5.36214 4.41509C5.34528 4.35142 5.40579 4.32121 5.43591 4.30453C5.46602 4.28776 5.54313 4.22743 5.48623 4.17387C5.42924 4.12021 5.37892 4.19731 5.32869 4.20723C5.27837 4.21742 5.29848 4.17387 5.40236 4.09343C5.49206 4.02403 5.417 3.95462 5.36242 3.93061C5.21813 4.07573 4.96265 4.3113 4.90649 4.36486C4.88638 4.38414 4.86905 4.40665 4.85283 4.43381C4.98767 4.37107 4.99573 4.42389 4.97358 4.46198V4.46198ZM5.80439 5.8088C5.84794 5.84911 5.95191 5.90601 6.0255 5.83892C6.09935 5.77192 6.00872 5.69815 5.99881 5.64468C5.98861 5.59093 6.05237 5.55739 6.01882 5.47046C5.96063 5.31877 5.87481 5.50058 5.8244 5.55081C5.77427 5.60104 5.78261 5.51569 5.82783 5.47046C5.85137 5.44693 5.95525 5.38326 5.89483 5.31293C5.83451 5.24259 5.74749 5.28272 5.70394 5.31293C5.66029 5.34314 5.62683 5.37993 5.55983 5.35982C5.49283 5.33971 5.43584 5.33304 5.39572 5.43024C5.35541 5.52727 5.43251 5.50058 5.49608 5.57083C5.55983 5.64116 5.51971 5.64468 5.46948 5.62791C5.41907 5.61114 5.39572 5.54747 5.32195 5.55739C5.24819 5.56749 5.24819 5.6849 5.27173 5.71502C5.29526 5.74514 5.34197 5.76191 5.30852 5.81881C5.27516 5.8758 5.32529 5.9428 5.38552 5.96958C5.44594 5.99636 5.5362 5.88914 5.56993 5.84559C5.60339 5.80204 5.63675 5.81214 5.63008 5.84559C5.62452 5.87441 5.60876 5.95021 5.60654 6.01351C5.6576 5.99719 5.7081 5.98209 5.75657 5.96884C5.75647 5.93362 5.74888 5.877 5.73405 5.82233C5.71394 5.74856 5.76092 5.76858 5.80439 5.8088V5.8088ZM4.93335 6.16734C4.85292 6.1907 4.83948 6.15381 4.78592 6.1338C4.73236 6.11378 4.72884 6.16049 4.76572 6.21748C4.80269 6.27447 4.84282 6.32803 4.79926 6.32803C4.75571 6.32803 4.72226 6.3348 4.71549 6.36834C4.70882 6.4017 4.63848 6.36167 4.62171 6.29124C4.60503 6.22072 4.58825 6.08691 4.55137 6.15381C4.51458 6.22072 4.48104 6.33146 4.38726 6.28123C4.29338 6.23101 4.35705 6.16392 4.31016 6.11693C4.26327 6.07004 4.21971 6.00981 4.2666 5.92604C4.31358 5.84226 4.35371 5.9126 4.39726 5.9126C4.44082 5.9126 4.44758 5.87238 4.40736 5.84226C4.36715 5.81215 4.31683 5.66804 4.50115 5.67814C4.57213 5.68204 4.64858 5.65804 4.70882 5.61448C4.76905 5.57083 4.92668 5.59428 4.86302 5.70502C4.79926 5.81548 4.81946 5.83893 4.85625 5.79871C4.89314 5.7584 4.94003 5.68491 5.01036 5.70502C5.08079 5.72504 5.05058 5.7786 5.00703 5.83893C4.96347 5.89925 4.99025 5.93947 5.02371 5.96282C5.05725 5.98636 5.11897 6.11304 4.93335 6.16734V6.16734ZM5.27516 5.37658C5.21474 5.37992 5.14098 5.36315 5.14098 5.36315C5.13431 5.42681 5.0725 5.518 5.01041 5.61113C5.00364 5.62123 4.96685 5.62123 4.94999 5.6077C4.9334 5.59435 4.88651 5.57082 4.92321 5.5306C4.96018 5.49057 5.02042 5.4067 5.01041 5.36991C5.00031 5.33303 4.97362 5.29957 4.9334 5.3498C4.89318 5.40003 4.82952 5.50391 4.75918 5.50734C4.68866 5.51058 4.61851 5.44692 4.65187 5.38325C4.68542 5.31968 4.69543 5.28614 4.64854 5.22905C4.60165 5.17216 4.61916 5.09932 4.71896 5.05493C4.74908 5.04158 4.80264 5.05493 4.83953 5.08504C4.87632 5.11526 4.89652 5.08504 4.8462 5.05493C4.79588 5.02481 4.75575 4.98793 4.74908 4.92093C4.74269 4.85727 4.78263 4.79036 4.86974 4.82715C4.95675 4.86394 5.01041 4.83382 5.04729 4.8037C5.08408 4.77349 5.24125 4.73587 5.21817 4.87413C5.20131 4.97449 5.1546 4.97792 5.14098 5.03148C5.12773 5.08504 5.16776 5.05159 5.1913 5.01147C5.21474 4.97116 5.2684 4.80667 5.37886 4.93094C5.40573 4.96115 5.39573 5.01147 5.36209 5.06837C5.32863 5.12536 5.35541 5.15881 5.37552 5.18893C5.39573 5.21914 5.44234 5.36722 5.27516 5.37658" fill="#008348"/>
<path d="M8.03876 2.71207L8.14106 2.63951L8.36282 2.96885L8.49339 2.87628L8.26506 2.5536L8.36431 2.48345L8.60728 2.8241L8.73804 2.73144L8.37718 2.22565L7.78355 2.64637L8.11095 3.11184L8.24161 3.01926L8.03876 2.71207ZM8.4678 3.85577L8.66195 3.76597L8.52823 3.47546L8.98295 3.28604L8.90038 3.10404L8.2581 3.38343L8.4678 3.85577ZM8.58347 4.16296L8.60367 4.34209L9.03476 4.2914L9.05163 4.47822L9.24457 4.46395L9.19091 3.83741L8.99779 3.85168L9.01447 4.11227L8.58347 4.16296ZM8.60518 4.774L8.60787 4.98751L9.24154 4.98556L9.23894 4.77215L8.60518 4.774ZM8.90283 5.28928C8.79663 5.2689 8.67088 5.28641 8.58284 5.35313C8.5038 5.41318 8.46701 5.47342 8.44607 5.58277C8.43291 5.65208 8.44356 5.74308 8.46655 5.82278L8.634 5.76662C8.61787 5.72807 8.61111 5.6695 8.62853 5.61019C8.66245 5.49566 8.75549 5.44404 8.8691 5.46081C8.98966 5.47851 9.05833 5.58907 9.03655 5.72066C9.02812 5.77311 9.00199 5.81852 8.94231 5.85419L9.046 5.97911C9.13043 5.9274 9.19437 5.82556 9.20808 5.75402C9.23134 5.63345 9.20261 5.55024 9.14674 5.45238C9.09234 5.35693 9.00032 5.30791 8.90283 5.28928H8.90283ZM8.78664 6.17453C8.69813 6.15183 8.57757 6.24904 8.51947 6.30492C8.48592 6.33717 8.36888 6.45513 8.31486 6.43688C8.26648 6.42066 8.28122 6.3468 8.29762 6.29852C8.32134 6.22809 8.35776 6.16888 8.41438 6.13079L8.30948 6.08427C8.25851 6.1269 8.20171 6.19566 8.17836 6.26488C8.15139 6.34476 8.14027 6.43827 8.15167 6.49776C8.16631 6.5744 8.19309 6.62323 8.27974 6.61536C8.34646 6.60915 8.514 6.50036 8.61066 6.40908C8.65968 6.36293 8.70147 6.35792 8.72325 6.37006C8.75865 6.38962 8.75642 6.44994 8.74373 6.48775C8.72668 6.53826 8.7024 6.61545 8.66218 6.64399L8.80535 6.74009C8.86383 6.68134 8.89413 6.59302 8.91127 6.51046C8.95288 6.31103 8.84483 6.18954 8.78664 6.17453V6.17453ZM7.99089 1.96858C7.97847 1.87045 7.92426 1.75758 7.86912 1.70985C7.78386 1.63581 7.68295 1.61598 7.57564 1.62988C7.46675 1.64415 7.36547 1.71402 7.30829 1.79529C7.24601 1.88361 7.21024 2.00547 7.23498 2.11324C7.25704 2.20989 7.29689 2.26828 7.38798 2.33231C7.44571 2.37299 7.53301 2.40061 7.61511 2.41237L7.63281 2.23668C7.59102 2.23556 7.53477 2.21759 7.48806 2.17728C7.39753 2.09916 7.39327 1.97572 7.45072 1.89667C7.52226 1.79798 7.64708 1.77685 7.7581 1.8508C7.8024 1.88009 7.81991 1.92753 7.82779 1.99685L7.99089 1.96859V1.96858ZM1.50968 5.61924C1.51422 5.57133 1.51153 5.48376 1.56343 5.47282C1.61347 5.46226 1.64646 5.51082 1.65702 5.56067C1.67241 5.63342 1.69289 5.69004 1.6636 5.75176L1.79853 5.73758C1.82068 5.67503 1.81382 5.59135 1.79871 5.51999C1.7812 5.43733 1.75488 5.37932 1.69409 5.32539C1.63562 5.27349 1.5916 5.25996 1.50634 5.27794C1.45436 5.28897 1.3616 5.38191 1.35835 5.56883C1.3578 5.60432 1.34936 5.67206 1.31748 5.67364C1.2769 5.67577 1.24696 5.62749 1.23881 5.58847C1.22769 5.5363 1.2427 5.42204 1.26262 5.377L1.1214 5.37636C1.10092 5.4566 1.09304 5.56911 1.11046 5.65167C1.14892 5.83358 1.25919 5.89308 1.34871 5.88325C1.44444 5.87269 1.49467 5.77279 1.50968 5.61924V5.61924ZM1.22714 4.85174L1.72746 4.84553L1.72505 4.68836L1.22473 4.69457L1.22269 4.48134L1.06256 4.4831L1.06896 5.08017L1.22909 5.07841L1.22714 4.85174ZM2.13071 3.2813L1.74446 3.05852L1.74548 3.05667L2.25702 3.04814L2.37906 2.85975L1.74873 2.4963L1.65346 2.64447L2.08354 2.91461L1.49704 2.93129L1.41521 3.08956L2.03544 3.44958L2.13071 3.2813ZM1.50511 3.6469C1.61641 3.6469 1.70685 3.73716 1.70685 3.84855C1.70685 3.95994 1.61641 4.05029 1.50511 4.05029C1.39363 4.05029 1.30337 3.95994 1.30337 3.84855C1.30337 3.73716 1.39363 3.6469 1.50511 3.6469ZM1.50511 4.23581C1.71899 4.23581 1.89237 4.06243 1.89237 3.84855C1.89237 3.63476 1.71899 3.46129 1.50511 3.46129C1.29114 3.46129 1.11785 3.63476 1.11785 3.84855C1.11785 4.06243 1.29114 4.23581 1.50511 4.23581V4.23581ZM1.75469 6.59823C1.64331 6.59823 1.55296 6.50779 1.55296 6.3964C1.55296 6.28501 1.64331 6.19475 1.75469 6.19475C1.86599 6.19475 1.95634 6.28501 1.95634 6.3964C1.95634 6.50778 1.86599 6.59823 1.75469 6.59823V6.59823ZM2.14196 6.3964C2.14196 6.18252 1.96858 6.00923 1.7547 6.00923C1.54072 6.00923 1.36743 6.18252 1.36743 6.3964C1.36743 6.61037 1.54072 6.78376 1.75469 6.78376C1.96858 6.78376 2.14196 6.61037 2.14196 6.3964V6.3964ZM2.48202 7.2994L2.46867 7.28337C2.42595 7.23212 2.28167 7.07941 2.34125 7.02334C2.39565 6.97219 2.5328 7.14631 2.57163 7.19274L2.58822 7.21294L2.48202 7.2994V7.2994ZM2.24414 7.51421C2.19298 7.45295 2.04045 7.33304 2.1056 7.27169C2.16769 7.21331 2.32068 7.39985 2.33968 7.42265L2.24414 7.51421ZM2.2206 6.83874C2.1612 6.89147 2.13247 7.01667 2.18853 7.10146C2.12747 7.07171 2.00431 7.06152 1.94778 7.11064C1.80841 7.23166 1.97744 7.40653 2.11625 7.54516L2.30975 7.73624L2.82397 7.31089L2.61574 7.06875C2.54271 6.97701 2.34088 6.73236 2.2206 6.83874H2.2206Z" fill="white"/>
<path d="M4.50948 8.8407C4.53125 8.83069 4.56147 8.81725 4.5749 8.82735C4.58825 8.83736 4.6685 8.89435 4.71891 8.938C4.76904 8.98146 4.78582 8.9949 4.74569 9.01835C4.70547 9.0417 4.6685 9.06524 4.67535 9.04503C4.68203 9.02511 4.69203 8.9949 4.66516 8.96812C4.63847 8.94125 4.57268 8.89047 4.5446 8.86758C4.52625 8.85247 4.50948 8.8407 4.50948 8.8407V8.8407ZM4.32015 8.89608C4.30338 8.91119 4.30005 8.9363 4.32015 8.95631C4.34026 8.97642 4.45249 9.07021 4.47093 9.08874C4.48937 9.10709 4.51615 9.11394 4.54627 9.10709C4.57648 9.10032 4.51114 9.14397 4.48594 9.14897C4.46101 9.15388 4.43247 9.15388 4.40569 9.12886C4.37872 9.10375 4.22804 8.96132 4.19792 8.93287C4.16771 8.90442 4.20626 8.90442 4.23305 8.90118C4.25992 8.89784 4.28327 8.89942 4.32015 8.89608ZM5.05223 0.90728C5.05853 0.890968 5.0639 0.873083 5.07085 0.858721C5.04729 0.871003 5.02387 0.883576 5.00061 0.896437C5.01544 0.91738 5.03555 0.950555 5.05223 0.90728ZM5.65702 0.940722C5.64692 0.9056 5.61504 0.960925 5.57316 1.01106C5.53137 1.06138 5.47095 1.03126 5.46437 1.00615C5.45769 0.980942 5.44592 0.952489 5.40904 0.903841C5.37216 0.855374 5.44426 0.788282 5.47437 0.779849C5.50449 0.771602 5.54313 0.764839 5.55314 0.756497C5.56167 0.749455 5.54647 0.700062 5.53831 0.66188C5.41784 0.696263 5.27097 0.759184 5.14132 0.823127C5.1808 0.838231 5.16912 0.914869 5.16449 0.925617C5.15939 0.937387 5.14605 1.00439 5.17616 0.964168C5.20637 0.92395 5.21814 0.908937 5.24984 0.899022C5.28171 0.888828 5.31684 0.890496 5.31869 0.937387C5.32026 0.98437 5.29849 0.980942 5.29181 1.01106C5.28505 1.04127 5.29181 1.0396 5.30692 1.04627C5.32193 1.05295 5.33194 1.07315 5.32026 1.10493C5.3085 1.13672 5.25827 1.14005 5.21295 1.13505C5.16773 1.13004 5.16273 1.13672 5.17792 1.15182C5.19007 1.16415 5.20656 1.19093 5.21249 1.21891C5.32147 1.16619 5.45334 1.12208 5.65758 1.0801C5.66314 1.04145 5.66527 0.969914 5.65702 0.940722H5.65702ZM4.5983 1.60248C4.58319 1.57227 4.56142 1.56727 4.55308 1.59071C4.54455 1.61416 4.52787 1.69292 4.47597 1.71461C4.46319 1.7201 4.45007 1.72478 4.43669 1.7286C4.45466 1.74806 4.47468 1.76549 4.49775 1.7817C4.53871 1.73843 4.57708 1.69895 4.61387 1.66216C4.61248 1.64353 4.60859 1.62315 4.5983 1.60248V1.60248ZM5.09906 1.20212C5.08072 1.19545 5.06561 1.2239 5.05384 1.24392C5.04217 1.26403 5.01705 1.29757 4.97359 1.29257C4.92994 1.28756 4.91984 1.27246 4.90817 1.23558C4.8964 1.19879 4.86962 1.18702 4.83783 1.18702C4.80595 1.18702 4.78417 1.14847 4.81772 1.10825C4.85127 1.06812 4.88472 1.08647 4.9115 1.08647C4.93819 1.08647 4.95172 1.05802 4.92994 1.04292C4.91261 1.03096 4.88222 0.996769 4.87694 0.970451C4.78139 1.03328 4.64443 1.13049 4.52498 1.23817C4.54657 1.24003 4.57178 1.24725 4.58318 1.25235C4.59828 1.25902 4.62506 1.27913 4.62173 1.30934C4.61839 1.33937 4.6284 1.34622 4.64684 1.32602C4.66519 1.306 4.6435 1.24558 4.70541 1.22223C4.7675 1.19879 4.77593 1.24558 4.7725 1.27737C4.76898 1.30934 4.7725 1.33937 4.80438 1.3528C4.83607 1.36624 4.87295 1.41813 4.80262 1.44834C4.73228 1.47846 4.69373 1.48523 4.66519 1.49366C4.63674 1.50191 4.6435 1.53045 4.66686 1.5488C4.68122 1.5601 4.6915 1.57104 4.69985 1.57947C4.78844 1.49718 4.87221 1.4299 4.96683 1.36624C5.01863 1.33149 5.06589 1.30007 5.11509 1.27116C5.12316 1.24104 5.12603 1.21185 5.09906 1.20212V1.20212ZM4.44236 1.51533C4.44422 1.48187 4.41911 1.4701 4.40224 1.4651C4.39001 1.4613 4.36703 1.43758 4.35692 1.41719C4.34024 1.43952 4.32551 1.46167 4.31346 1.48354C4.32078 1.50606 4.32811 1.52691 4.33524 1.54655C4.37722 1.54553 4.44098 1.5434 4.44237 1.51533H4.44236ZM5.85801 3.07826C5.74829 3.07131 5.61772 3.09355 5.49299 3.14165C5.51477 3.15462 5.53803 3.18418 5.58325 3.16871C5.64691 3.14693 5.66878 3.21393 5.63857 3.23246C5.60836 3.25081 5.59826 3.29761 5.65525 3.26249C5.71215 3.22736 5.76238 3.27759 5.73912 3.31447C5.71558 3.35126 5.68546 3.32281 5.69213 3.37471C5.69881 3.4267 5.68713 3.47358 5.64015 3.48193C5.59326 3.49036 5.58325 3.42002 5.56156 3.42503C5.5396 3.43003 5.56648 3.54893 5.55637 3.55059C5.52366 3.55615 5.49243 3.58451 5.47557 3.60156C5.47696 3.60249 5.47807 3.60332 5.47927 3.60425C5.66378 3.73667 5.71048 3.66458 5.73736 3.60091C5.76414 3.53725 5.82373 3.34858 5.84115 3.24914C5.85134 3.19215 5.86469 3.13192 5.85801 3.07826V3.07826ZM5.45766 3.44346C5.46766 3.41835 5.44088 3.39657 5.41252 3.41492C5.38389 3.43345 5.34191 3.46014 5.31346 3.41158C5.2851 3.36293 5.34525 3.35802 5.34868 3.33457C5.35201 3.31113 5.32857 3.30779 5.34034 3.26924C5.35201 3.23069 5.39353 3.24218 5.4242 3.26248C5.45932 3.28602 5.44904 3.23041 5.44422 3.20892C5.44051 3.1926 5.43792 3.17611 5.44088 3.16341C5.40483 3.17982 5.36916 3.19826 5.33533 3.21892C5.16315 3.32429 5.15778 3.41325 5.19791 3.44679C5.23395 3.47673 5.30762 3.49081 5.43282 3.57255C5.43412 3.52909 5.44987 3.46283 5.45766 3.44346H5.45766ZM4.90988 3.34287C4.83862 3.30738 4.76902 3.22898 4.72223 3.13853C4.72223 3.13853 4.72556 3.12519 4.70545 3.12519C4.68544 3.12519 4.61158 3.11842 4.48768 3.07487C4.36369 3.03141 4.34701 3.05819 4.33033 3.11175C4.31346 3.16531 4.30003 3.26252 4.29669 3.4234C4.29336 3.58418 4.36369 3.68463 4.40734 3.66786C4.42847 3.65961 4.48323 3.63246 4.54189 3.60392C4.54273 3.57194 4.54449 3.51662 4.54801 3.4903C4.55301 3.45184 4.51289 3.46695 4.49602 3.48706C4.47925 3.50708 4.44756 3.54062 4.41734 3.53553C4.38723 3.53052 4.36712 3.47696 4.37212 3.42673C4.37713 3.37641 4.31847 3.35631 4.35544 3.2894C4.39223 3.2223 4.42244 3.30608 4.45423 3.29931C4.48592 3.29264 4.46933 3.27596 4.45423 3.22397C4.43912 3.17199 4.5014 3.1566 4.54134 3.19376C4.56645 3.2173 4.57813 3.16531 4.61501 3.17199C4.65189 3.17875 4.67367 3.20386 4.65189 3.24075C4.63512 3.2692 4.62335 3.33619 4.65532 3.30107C4.68701 3.26586 4.71889 3.24408 4.74901 3.26762C4.77922 3.29097 4.75911 3.33953 4.75077 3.36465C4.74233 3.38985 4.80442 3.42006 4.76078 3.45008C4.71722 3.4802 4.66857 3.4284 4.64355 3.43507C4.61844 3.44184 4.61334 3.47196 4.64689 3.4954C4.66876 3.51069 4.69164 3.52264 4.70851 3.52941C4.77829 3.50569 4.85993 3.45991 4.88643 3.44341L4.92999 3.44684C4.93333 3.38985 4.92999 3.35297 4.90988 3.34287H4.90988ZM4.66192 4.08001C4.63513 4.01968 4.62578 4.06602 4.55136 4.18389C4.51374 4.24348 4.41866 4.35394 4.29967 4.47877C4.38215 4.49545 4.5598 4.53909 4.45425 4.6262C4.34026 4.71989 4.39058 4.71322 4.44081 4.70645C4.49113 4.69969 4.5749 4.7299 4.51114 4.84388C4.44757 4.95786 4.40393 5.03812 4.3436 5.07509C4.28327 5.11188 4.19626 5.10854 4.17615 5.02143C4.15604 4.93433 4.09895 5.02143 4.09571 5.07842C4.09228 5.13532 4.08561 5.23253 4.09228 5.26608L3.96505 5.25931C3.96171 5.20566 3.96171 5.09844 3.97172 5.04822C3.98182 4.99808 3.97848 4.93766 3.90138 4.96111C3.85106 4.97649 3.81659 4.96352 3.79871 4.95323C3.64895 5.08649 3.57324 5.17851 3.52246 5.25969C3.56092 5.29379 3.62189 5.31946 3.68695 5.29286C3.76062 5.26265 3.88137 5.29953 3.8076 5.41352C3.73384 5.52722 3.73727 5.58421 3.81085 5.51388C3.88461 5.44354 4.00304 5.32261 4.03881 5.45031C4.06216 5.53399 3.98516 5.56077 3.98849 5.62786C3.99183 5.69486 4.05892 5.76186 3.96505 5.8423C3.87127 5.92264 3.83105 5.78521 3.76738 5.80541C3.72902 5.81765 3.72124 5.85295 3.72337 5.88427C3.80677 6.00224 3.92816 6.16905 3.97172 6.24077C4.03881 6.35151 4.03881 6.4856 4.0655 6.4654C4.09228 6.4452 4.15604 6.38487 4.17615 6.36829C4.19626 6.35151 4.21627 6.3314 4.20626 6.29452C4.19626 6.25773 4.15771 6.06007 4.16947 5.92264C4.18282 5.7652 4.25649 5.59264 4.31015 5.49386C4.36167 5.39878 4.51782 5.09511 4.5547 5.01467C4.59158 4.93433 4.65858 4.84054 4.67535 4.76678C4.69203 4.69302 4.7557 4.52223 4.78257 4.44179C4.7759 4.37479 4.73262 4.23922 4.66192 4.08001V4.08001ZM5.16444 3.33282C5.14433 3.38648 5.11764 3.45348 5.10421 3.48702C5.09077 3.52057 5.02905 3.5075 5.03378 3.48359C5.04388 3.43337 4.97224 3.46664 4.98022 3.4267C4.98689 3.39315 4.97354 3.3395 5.01033 3.3395C5.04722 3.3395 5.11764 3.33282 5.16444 3.33282Z" fill="#BB9753"/>
<path d="M5.05225 0.907263C5.05855 0.890951 5.06393 0.873066 5.07088 0.858704C5.04731 0.870986 5.02389 0.883559 5.00063 0.89642C5.01546 0.917363 5.03557 0.950538 5.05225 0.907263ZM5.27515 5.37654C5.21473 5.37988 5.14096 5.36311 5.14096 5.36311C5.13429 5.42677 5.07248 5.51796 5.01039 5.61109C5.00363 5.62119 4.96684 5.62119 4.94997 5.60766C4.93338 5.59431 4.88649 5.57078 4.92319 5.53056C4.96017 5.49053 5.0204 5.40666 5.01039 5.36987C5.00029 5.33299 4.9736 5.29953 4.93338 5.34976C4.89317 5.39999 4.8295 5.50387 4.75917 5.5073C4.68865 5.51054 4.6185 5.44688 4.65186 5.38322C4.6854 5.31964 4.69541 5.2861 4.64852 5.22901C4.60163 5.17212 4.61914 5.09928 4.71895 5.05489C4.74907 5.04154 4.80263 5.05489 4.83951 5.085C4.8763 5.11522 4.8965 5.085 4.84619 5.05489C4.79586 5.02477 4.75574 4.98789 4.74907 4.92089C4.74267 4.85723 4.78261 4.79032 4.86972 4.82711C4.95674 4.8639 5.01039 4.83378 5.04728 4.80366C5.08406 4.77345 5.24123 4.73583 5.21816 4.87409C5.20129 4.97445 5.15459 4.97788 5.14096 5.03144C5.12771 5.085 5.16775 5.05155 5.19128 5.01143C5.21473 4.97112 5.26838 4.80663 5.37884 4.9309C5.40572 4.96111 5.39571 5.01143 5.36207 5.06833C5.32862 5.12532 5.3554 5.15877 5.37551 5.18889C5.39571 5.2191 5.44232 5.36718 5.27515 5.37654V5.37654ZM4.93338 6.16729C4.85285 6.19064 4.83951 6.15385 4.78586 6.13374C4.73229 6.11372 4.72887 6.16043 4.76575 6.21742C4.80263 6.27441 4.84285 6.32807 4.79929 6.32807C4.75574 6.32807 4.72219 6.33474 4.71552 6.36829C4.70885 6.40174 4.63851 6.36161 4.62174 6.29118C4.60497 6.22066 4.58829 6.08685 4.55131 6.15385C4.51452 6.22066 4.48097 6.3314 4.38719 6.28118C4.29341 6.23095 4.35708 6.16386 4.31009 6.11688C4.2633 6.06999 4.21974 6.00975 4.26663 5.92598C4.31352 5.8422 4.35374 5.91254 4.39729 5.91254C4.44085 5.91254 4.44752 5.87242 4.4074 5.8422C4.36709 5.81209 4.31686 5.66808 4.50108 5.67809C4.57216 5.68198 4.64852 5.65798 4.70885 5.61442C4.76908 5.57078 4.92662 5.59431 4.86296 5.70496C4.79929 5.81542 4.8194 5.83887 4.85619 5.79874C4.89317 5.75834 4.93997 5.68485 5.01039 5.70496C5.08073 5.72498 5.05061 5.77854 5.00706 5.83887C4.9635 5.89929 4.99028 5.93941 5.02374 5.96277C5.05728 5.9863 5.11891 6.11298 4.93338 6.16729V6.16729ZM6.1227 5.56744C6.03559 5.42353 6.01882 5.36654 6.00538 5.2191C5.99695 5.12606 6.00454 5.00513 6.01798 4.88892C5.99222 4.88688 5.95719 4.89179 5.95525 4.9309C5.95191 4.99465 5.9217 5.08501 5.90159 5.1319C5.88148 5.17897 5.81448 5.17545 5.77426 5.17897C5.73404 5.18231 5.73404 5.15543 5.76092 5.09511C5.78761 5.03478 5.79771 5.008 5.79094 4.95444C5.78418 4.90078 5.75758 4.94776 5.73404 4.99466C5.7105 5.04154 5.6436 5.13523 5.5665 5.12532C5.48949 5.11522 5.50951 4.99808 5.51627 4.95777C5.52295 4.91755 5.49959 4.91088 5.46947 4.90411C5.43926 4.89754 5.37884 4.88401 5.41248 4.78689C5.44594 4.68968 5.48282 4.69969 5.52962 4.71646C5.57651 4.73323 5.58327 4.70312 5.53963 4.68644C5.49607 4.66976 5.44927 4.63278 5.45261 4.58589C5.46141 4.46181 5.53963 4.472 5.60005 4.48535C5.6525 4.49693 5.71866 4.46542 5.7636 4.41742C5.76268 4.41436 5.76157 4.4113 5.76092 4.40815C5.67149 4.06723 5.84117 3.64771 5.88806 3.53048C5.93505 3.41326 6.11593 3.08327 6.17793 2.98439C6.14447 2.96762 6.0557 2.92248 6.00705 2.89728C5.95858 2.87226 5.93171 2.86049 5.91827 2.87893C5.90483 2.89728 5.88806 2.90729 5.86471 2.94083C5.81763 3.00802 5.85803 2.99783 5.87138 2.99783C5.88482 2.99783 5.94171 3.0715 5.95191 3.08836C5.96192 3.10504 5.95191 3.11839 5.92837 3.17195C5.89761 3.2421 5.87814 3.40325 5.85136 3.50037C5.77018 3.79459 5.6436 3.76503 5.58661 3.72824C5.52962 3.69127 5.51294 3.74835 5.45595 3.8287C5.44232 3.84778 5.40822 3.88439 5.36318 3.9297C5.41777 3.95407 5.49162 4.02432 5.40238 4.09336C5.2985 4.17379 5.2783 4.21735 5.32862 4.20725C5.37884 4.19724 5.42916 4.12014 5.48615 4.17379C5.54315 4.22745 5.46605 4.28768 5.43584 4.30446C5.40572 4.32123 5.3453 4.35135 5.36207 4.41501C5.37884 4.47858 5.38894 4.56578 5.30508 4.58589C5.2214 4.606 5.18795 4.56912 5.1645 4.52557C5.14096 4.48201 5.11761 4.51213 5.10751 4.56578C5.0975 4.61934 5.09083 4.65956 5.09083 4.67968C5.09083 4.69969 5.0305 4.66976 5.00363 4.64288C4.97685 4.61601 4.94339 4.68968 4.91309 4.65289C4.88316 4.61601 4.94997 4.50203 4.9736 4.4619C4.99566 4.424 4.98639 4.37146 4.85323 4.43308C4.81014 4.50527 4.77594 4.60989 4.72219 4.77346C4.64852 4.99808 4.48162 5.3038 4.41231 5.41509C4.23188 5.70515 4.19963 5.97963 4.22651 6.15051C4.2531 6.32047 4.27664 6.30786 4.31352 6.30786C4.35041 6.30786 4.44085 6.42176 4.50108 6.49228C4.56141 6.56261 4.58495 6.5324 4.61507 6.50886C4.71191 6.43362 4.90642 6.30786 5.18118 6.1773C5.29841 6.1216 5.45446 6.0622 5.60672 6.01346C5.60903 5.95035 5.62451 5.87427 5.63007 5.84563C5.63674 5.81209 5.60338 5.80199 5.56993 5.84563C5.5362 5.8891 5.44594 5.99631 5.38552 5.96953C5.32528 5.94275 5.27515 5.87575 5.30851 5.81876C5.34196 5.76186 5.29526 5.74509 5.27172 5.71497C5.24818 5.68485 5.24818 5.56744 5.32195 5.55734C5.39571 5.54742 5.41906 5.61109 5.46947 5.62786C5.5197 5.64463 5.55983 5.64111 5.49607 5.57078C5.4325 5.50053 5.3554 5.52722 5.39571 5.4302C5.43584 5.33299 5.49283 5.33975 5.55983 5.35977C5.62683 5.37988 5.66028 5.34309 5.70393 5.31288C5.74748 5.28267 5.8345 5.24254 5.89482 5.31288C5.95525 5.38322 5.85136 5.44688 5.82782 5.47042C5.7826 5.51564 5.77426 5.60099 5.8244 5.55076C5.87481 5.50053 5.96053 5.31872 6.01881 5.47042C6.05236 5.55734 5.98861 5.59089 5.9988 5.64463C6.00871 5.6981 6.09934 5.77187 6.02549 5.83887C5.95191 5.90596 5.84793 5.84906 5.80438 5.80875C5.76092 5.76853 5.71394 5.74852 5.73404 5.82228C5.74878 5.87649 5.75628 5.93358 5.75647 5.96879C5.90307 5.9282 6.03077 5.90355 6.09573 5.9093C6.19146 5.91782 6.26337 5.94609 6.26003 5.85898C6.2567 5.77187 6.20981 5.71154 6.1227 5.56744V5.56744ZM4.13733 8.24087C4.1226 8.24087 4.09063 8.23567 4.09063 8.22205L4.05198 8.21779C4.07533 8.22252 4.09665 8.2493 4.072 8.26607C4.04522 8.28479 3.95978 8.29489 3.86952 8.28961C3.77907 8.28479 3.75702 8.23567 3.75544 8.20009C3.75433 8.17655 3.75702 8.15598 3.75702 8.12206C3.75702 8.08833 3.74896 8.05775 3.76897 8.04422C3.7889 8.03078 3.78398 8.06442 3.79724 8.06442C3.85441 8.06442 4.05198 8.08314 4.09897 8.09C4.14613 8.09658 4.1428 8.06859 4.13233 8.03718C4.12918 8.02698 4.11593 8.03078 4.11092 8.04422C4.10573 8.05775 4.06218 8.05275 4.06218 8.05275C4.06218 8.05275 3.97507 8.04422 3.91845 8.0407C3.86127 8.03718 3.81735 8.03078 3.7825 8.02393C3.7471 8.01688 3.70336 8.01883 3.70707 8.03579C3.70985 8.05275 3.72023 8.26431 3.72218 8.29489C3.72366 8.32529 3.72542 8.33733 3.74043 8.33733C3.77907 8.33733 4.03901 8.34067 4.09897 8.34067C4.15939 8.34067 4.15624 8.33381 4.15763 8.30008C4.15939 8.26607 4.15281 8.24086 4.13733 8.24086" fill="#BB9753"/>
</g>
<defs>
<clipPath id="clip0_140_171">
<rect width="10.2266" height="10.2266" fill="white"/>
</clipPath>
</defs>
</svg>
